<?xml version="1.0" standalone="no"?>
<!DOCTYPE svg PUBLIC "-//W3C//DTD SVG 20010904//EN"
 "http://www.w3.org/TR/2001/REC-SVG-20010904/DTD/svg10.dtd">
<svg version="1.0" xmlns="http://www.w3.org/2000/svg"
 width="1730.000000pt" height="862.000000pt" viewBox="0 0 1730.000000 862.000000"
 preserveAspectRatio="xMidYMid meet">

<g transform="translate(0.000000,862.000000) scale(0.100000,-0.100000)"
fill="#000000" stroke="none">
<path d="M13807 8358 c-9 -29 -15 -54 -13 -56 2 -2 12 20 21 48 9 28 15 53 13
55 -2 3 -12 -19 -21 -47z"/>
<path d="M9249 8363 c-2 -66 -5 -76 -21 -87 -14 -8 -23 -7 -40 3 -21 13 -22
13 -9 -2 15 -19 47 -22 57 -6 4 8 9 7 15 -2 5 -9 9 12 9 54 0 37 -2 67 -5 67
-3 0 -5 -12 -6 -27z"/>
<path d="M14233 8325 c0 -38 2 -53 4 -32 2 20 2 52 0 70 -2 17 -4 1 -4 -38z"/>
<path d="M5650 8356 c0 -22 -5 -25 -47 -29 l-48 -3 47 -2 c45 -2 47 -3 51 -34
2 -18 5 -5 5 30 1 34 0 62 -3 62 -3 0 -5 -11 -5 -24z"/>
<path d="M7683 8335 c0 -27 2 -38 4 -22 2 15 2 37 0 50 -2 12 -4 0 -4 -28z"/>
<path d="M7773 8335 c0 -27 2 -38 4 -22 2 15 2 37 0 50 -2 12 -4 0 -4 -28z"/>
<path d="M8873 8320 c0 -36 2 -55 4 -42 3 16 11 22 32 22 16 0 35 8 42 18 11
14 11 15 -1 5 -8 -7 -26 -13 -41 -13 -25 0 -28 4 -32 38 -2 20 -4 8 -4 -28z"/>
<path d="M8930 8376 c0 -2 7 -7 16 -10 8 -3 12 -2 9 4 -6 10 -25 14 -25 6z"/>
<path d="M10650 8365 c-19 -22 -8 -25 13 -3 9 10 13 18 8 18 -5 0 -14 -7 -21
-15z"/>
<path d="M13077 8373 c-18 -17 -5 -42 28 -53 25 -8 35 -18 35 -32 0 -17 -5
-20 -34 -16 -19 2 -32 0 -30 -4 8 -13 61 -9 73 6 17 20 3 44 -31 51 -33 8 -48
32 -27 46 8 5 9 9 3 9 -6 0 -14 -3 -17 -7z"/>
<path d="M13532 8335 c-2 -57 10 -75 48 -75 38 0 50 18 48 75 l-1 50 -6 -49
c-7 -55 -29 -78 -58 -60 -12 7 -20 29 -24 60 l-6 49 -1 -50z"/>
<path d="M13900 8320 l0 -60 48 2 47 1 -42 4 c-38 4 -43 7 -43 28 0 20 6 24
38 28 l37 4 -39 1 c-35 2 -38 4 -34 27 3 14 1 25 -3 25 -5 0 -9 -27 -9 -60z"/>
<path d="M14620 8320 c0 -33 4 -60 10 -60 6 0 10 23 10 51 l0 51 40 -51 c22
-28 43 -51 45 -51 3 0 4 28 3 63 l-1 62 -6 -50 -6 -50 -39 48 c-21 26 -42 47
-47 47 -5 0 -9 -27 -9 -60z"/>
<path d="M7563 8325 c0 -27 2 -38 4 -22 2 15 2 37 0 50 -2 12 -4 0 -4 -28z"/>
<path d="M5877 8339 c7 -7 15 -10 18 -7 3 3 -2 9 -12 12 -14 6 -15 5 -6 -5z"/>
<path d="M7260 8346 c0 -2 7 -7 16 -10 8 -3 12 -2 9 4 -6 10 -25 14 -25 6z"/>
<path d="M7513 8305 c0 -27 2 -38 4 -22 2 15 2 37 0 50 -2 12 -4 0 -4 -28z"/>
<path d="M7814 8339 c-3 -6 -2 -15 3 -20 5 -5 9 -1 9 11 0 23 -2 24 -12 9z"/>
<path d="M9005 8340 c-3 -6 1 -7 9 -4 18 7 21 14 7 14 -6 0 -13 -4 -16 -10z"/>
<path d="M9065 8340 c-3 -6 1 -7 9 -4 18 7 21 14 7 14 -6 0 -13 -4 -16 -10z"/>
<path d="M9110 8346 c0 -2 7 -7 16 -10 8 -3 12 -2 9 4 -6 10 -25 14 -25 6z"/>
<path d="M9373 8305 c0 -27 2 -38 4 -22 2 15 2 37 0 50 -2 12 -4 0 -4 -28z"/>
<path d="M10772 8338 c-7 -7 -11 -21 -11 -32 1 -21 1 -21 6 -1 3 11 10 26 15
33 13 15 6 16 -10 0z"/>
<path d="M10826 8340 c7 -8 14 -24 17 -35 4 -19 5 -19 6 1 0 12 -7 28 -16 35
-16 12 -17 12 -7 -1z"/>
<path d="M10882 8301 c1 -41 2 -42 5 -11 3 19 9 40 14 46 5 7 3 11 -6 11 -11
0 -15 -12 -13 -46z"/>
<path d="M10930 8346 c0 -2 7 -7 16 -10 8 -3 12 -2 9 4 -6 10 -25 14 -25 6z"/>
<path d="M11185 8340 c-3 -6 1 -7 9 -4 18 7 21 14 7 14 -6 0 -13 -4 -16 -10z"/>
<path d="M11547 8343 c-10 -9 -9 -33 1 -33 4 0 8 9 8 20 0 23 0 22 -9 13z"/>
<path d="M13183 8305 c0 -27 2 -38 4 -22 2 15 2 37 0 50 -2 12 -4 0 -4 -28z"/>
<path d="M13230 8330 c-13 -25 3 -60 28 -60 16 1 16 1 0 11 -10 5 -18 19 -18
29 0 10 8 24 18 29 16 10 16 10 0 11 -10 0 -22 -9 -28 -20z"/>
<path d="M13293 8339 c9 -6 17 -19 17 -29 0 -10 -8 -24 -17 -30 -17 -11 -17
-11 0 -6 11 3 17 0 17 -9 0 -8 -8 -19 -17 -24 -16 -9 -16 -10 -2 -11 21 0 29
20 29 74 0 36 -3 42 -22 43 -20 2 -21 1 -5 -8z"/>
<path d="M13362 8300 c1 -40 2 -41 5 -10 2 19 11 40 20 47 13 10 13 12 -6 10
-18 -1 -21 -7 -19 -47z"/>
<path d="M13417 8343 c6 -4 13 -26 16 -48 4 -40 4 -40 3 4 -1 30 -6 46 -16 48
-10 3 -11 2 -3 -4z"/>
<path d="M13671 8285 c1 -33 4 -50 6 -38 4 18 9 21 32 17 34 -7 54 14 49 53
-2 19 -9 29 -23 31 -18 2 -18 2 -2 -8 22 -14 22 -59 1 -67 -38 -14 -71 40 -39
63 16 12 16 13 -4 11 -19 -1 -21 -7 -20 -62z"/>
<path d="M14020 8338 c15 -18 12 -39 -7 -60 -9 -10 -12 -18 -7 -18 5 0 15 10
23 22 l13 21 19 -24 c10 -13 19 -20 19 -15 0 5 -7 18 -17 28 -15 17 -15 20 3
41 19 22 19 22 -2 5 -18 -16 -22 -16 -37 -3 -9 8 -12 10 -7 3z"/>
<path d="M14111 8286 c1 -34 4 -51 6 -38 3 17 9 21 24 17 45 -15 80 26 58 67
-8 14 -20 18 -50 16 l-39 -2 1 -60z m78 36 c20 -38 -31 -71 -59 -37 -6 8 -9
23 -5 35 8 25 51 27 64 2z"/>
<path d="M14278 8325 c-10 -22 -9 -29 9 -47 41 -40 100 2 73 52 -6 11 -15 20
-21 20 -6 0 -3 -7 5 -16 19 -18 19 -20 6 -45 -14 -25 -46 -25 -60 0 -12 24 -4
48 18 54 15 4 15 5 -1 6 -10 0 -22 -10 -29 -24z"/>
<path d="M14391 8300 l1 -45 10 42 c5 25 16 43 26 46 9 3 5 4 -10 4 -26 -1
-28 -4 -27 -47z"/>
<path d="M14461 8328 c-6 -15 -5 -30 4 -43 13 -21 52 -32 66 -18 4 4 -6 8 -24
8 -29 0 -32 3 -35 32 -2 23 1 32 15 36 17 4 17 5 0 6 -10 0 -22 -9 -26 -21z"/>
<path d="M14516 8343 c6 -4 14 -15 17 -23 5 -11 6 -9 4 4 -1 11 -9 21 -17 23
-10 3 -11 2 -4 -4z"/>
<path d="M14772 8338 c-28 -28 -7 -78 33 -78 27 0 45 18 45 45 0 23 -17 45
-34 45 -6 0 -3 -5 7 -11 24 -14 22 -56 -3 -64 -41 -13 -69 43 -32 64 9 6 12
11 7 11 -6 0 -16 -5 -23 -12z"/>
<path d="M14876 8313 c23 -56 31 -59 44 -17 12 36 13 37 28 18 13 -17 14 -17
8 -1 -3 10 -6 23 -6 28 0 22 -19 6 -33 -28 l-15 -38 -15 38 c-9 20 -18 37 -21
37 -3 0 2 -17 10 -37z"/>
<path d="M14990 8316 c-6 -20 -16 -34 -21 -31 -5 4 -9 2 -9 -4 0 -5 4 -12 9
-15 9 -6 45 73 37 81 -2 2 -9 -12 -16 -31z"/>
<path d="M5691 8304 c0 -11 3 -14 6 -6 3 7 2 16 -1 19 -3 4 -6 -2 -5 -13z"/>
<path d="M7076 8305 c-9 -26 -7 -32 5 -12 6 10 9 21 6 23 -2 3 -7 -2 -11 -11z"/>
<path d="M9411 8304 c0 -11 3 -14 6 -6 3 7 2 16 -1 19 -3 4 -6 -2 -5 -13z"/>
<path d="M7852 8304 c9 -3 19 -13 22 -22 3 -12 4 -12 3 3 -1 12 -10 21 -22 22
-15 1 -15 0 -3 -3z"/>
<path d="M9610 8306 c0 -2 9 -6 20 -9 11 -3 18 -1 14 4 -5 9 -34 13 -34 5z"/>
<path d="M10640 8303 c0 -6 8 -17 18 -24 16 -13 16 -13 2 6 -8 11 -16 22 -17
24 -2 2 -3 0 -3 -6z"/>
<path d="M5766 8283 c-6 -14 -5 -15 5 -6 7 7 10 15 7 18 -3 3 -9 -2 -12 -12z"/>
<path d="M11410 8291 c0 -6 4 -13 10 -16 6 -3 7 1 4 9 -7 18 -14 21 -14 7z"/>
<path d="M7260 8274 c-17 -9 -20 -14 -9 -14 9 0 22 7 29 15 15 18 13 18 -20
-1z"/>
<path d="M9069 8277 c7 -10 21 -17 31 -17 10 0 24 7 31 17 13 15 12 15 -8 2
-20 -12 -26 -12 -45 0 -21 13 -22 13 -9 -2z"/>
<path d="M9312 8274 c9 -9 21 -15 27 -13 6 2 -2 10 -17 17 -25 11 -25 11 -10
-4z"/>
<path d="M11189 8278 c14 -19 46 -24 55 -9 4 5 -3 7 -14 4 -11 -3 -28 1 -38 8
-15 13 -16 12 -3 -3z"/>
<path d="M11485 8281 c-6 -5 -19 -11 -30 -14 -19 -4 -19 -5 1 -6 12 0 27 6 34
14 14 16 10 20 -5 6z"/>
<path d="M9537 8269 c7 -7 15 -10 18 -7 3 3 -2 9 -12 12 -14 6 -15 5 -6 -5z"/>
<path d="M9620 8270 c-23 -7 -23 -8 -3 -9 12 -1 25 4 28 9 3 6 5 10 3 9 -2 -1
-14 -5 -28 -9z"/>
<path d="M11017 8269 c7 -7 15 -10 18 -7 3 3 -2 9 -12 12 -14 6 -15 5 -6 -5z"/>
<path d="M11078 8268 c6 -6 18 -8 28 -6 14 3 12 5 -9 10 -19 3 -25 2 -19 -4z"/>
<path d="M11298 8268 c5 -5 16 -8 23 -6 8 3 3 7 -10 11 -17 4 -21 3 -13 -5z"/>
<path d="M5728 8263 c7 -3 16 -2 19 1 4 3 -2 6 -13 5 -11 0 -14 -3 -6 -6z"/>
<path d="M6038 8263 c7 -3 16 -2 19 1 4 3 -2 6 -13 5 -11 0 -14 -3 -6 -6z"/>
<path d="M7358 8263 c7 -3 16 -2 19 1 4 3 -2 6 -13 5 -11 0 -14 -3 -6 -6z"/>
<path d="M7468 8263 c7 -3 16 -2 19 1 4 3 -2 6 -13 5 -11 0 -14 -3 -6 -6z"/>
<path d="M7578 8263 c7 -3 16 -2 19 1 4 3 -2 6 -13 5 -11 0 -14 -3 -6 -6z"/>
<path d="M7718 8263 c6 -2 18 -2 25 0 6 3 1 5 -13 5 -14 0 -19 -2 -12 -5z"/>
<path d="M7828 8263 c6 -2 18 -2 25 0 6 3 1 5 -13 5 -14 0 -19 -2 -12 -5z"/>
<path d="M9448 8263 c7 -3 16 -2 19 1 4 3 -2 6 -13 5 -11 0 -14 -3 -6 -6z"/>
<path d="M10688 8263 c6 -2 18 -2 25 0 6 3 1 5 -13 5 -14 0 -19 -2 -12 -5z"/>
<path d="M10798 8263 c7 -3 16 -2 19 1 4 3 -2 6 -13 5 -11 0 -14 -3 -6 -6z"/>
<path d="M11558 8263 c6 -2 18 -2 25 0 6 3 1 5 -13 5 -14 0 -19 -2 -12 -5z"/>
<path d="M13248 8233 c7 -3 16 -2 19 1 4 3 -2 6 -13 5 -11 0 -14 -3 -6 -6z"/>
<path d="M12892 6430 c-46 -29 -64 -74 -50 -131 6 -24 15 -49 20 -55 12 -17
58 -154 58 -177 0 -10 7 -34 16 -53 12 -25 15 -49 11 -84 -3 -28 -3 -50 1 -50
11 0 42 55 42 73 0 9 10 19 23 23 12 3 36 21 54 40 20 20 53 38 87 48 82 24
176 19 176 -9 0 -7 -37 -63 -82 -124 -46 -61 -114 -157 -153 -212 -38 -56 -91
-123 -117 -149 -48 -47 -57 -67 -38 -86 7 -7 -6 -33 -38 -79 -86 -127 -162
-252 -188 -311 -14 -33 -29 -66 -33 -74 -13 -23 -529 -20 -696 4 -161 23 -205
45 -239 119 -9 20 -21 37 -26 37 -9 0 4 -49 26 -94 13 -25 13 -28 -1 -22 -8 3
-15 0 -15 -7 0 -8 18 -13 51 -14 30 0 57 -7 68 -17 10 -9 29 -16 43 -16 13 0
28 -3 32 -7 4 -4 23 -6 42 -4 18 1 34 -2 34 -7 0 -5 18 -8 40 -6 30 3 40 0 40
-11 0 -8 7 -15 15 -15 8 0 14 6 12 13 -1 7 5 10 13 7 8 -2 69 -6 134 -7 77 -1
122 -6 126 -14 6 -8 9 -8 12 2 3 10 37 13 139 14 l134 0 1 -62 c1 -35 7 -69
13 -77 7 -9 8 -17 2 -20 -41 -26 -784 -36 -775 -11 6 14 -23 28 -38 19 -5 -3
-7 -12 -4 -20 4 -9 -2 -14 -17 -14 -16 0 -18 3 -8 9 10 7 11 13 2 30 -13 24
-31 28 -31 6 0 -7 -8 -19 -17 -24 -17 -10 -17 -10 1 -11 15 0 16 -3 6 -14 -7
-10 -23 -13 -43 -10 -55 8 -220 4 -262 -6 -22 -5 -48 -10 -59 -10 -15 0 -16 3
-6 15 8 10 30 15 61 15 26 0 50 4 53 9 3 5 15 7 26 4 11 -3 28 -2 37 2 17 7
16 8 -2 15 -17 7 -14 9 13 9 33 1 47 21 15 21 -14 1 -11 6 12 25 17 14 36 25
43 25 17 0 15 21 -6 48 l-18 23 -25 -28 c-13 -15 -30 -41 -37 -58 -10 -24 -19
-30 -43 -31 -21 -1 -29 3 -25 12 3 7 0 16 -6 20 -8 5 -9 -3 -5 -24 4 -19 2
-32 -3 -32 -6 0 -10 8 -10 19 0 23 -25 47 -35 31 -3 -5 -1 -10 4 -10 6 0 11
-5 11 -11 0 -5 -4 -8 -9 -4 -5 3 -12 1 -16 -5 -3 -5 -1 -10 4 -10 6 0 11 -4
11 -9 0 -5 -10 -7 -22 -3 -13 3 -19 1 -15 -5 6 -10 -14 -25 -38 -28 -5 -1 -36
-14 -67 -29 -56 -27 -74 -46 -43 -46 8 0 15 4 15 9 0 7 74 31 97 31 4 0 -32
-20 -82 -45 -49 -25 -97 -55 -106 -67 -11 -14 -18 -17 -23 -9 -6 8 -15 4 -32
-14 -28 -30 -31 -45 -9 -45 19 0 9 -20 -35 -69 -16 -18 -30 -42 -30 -52 0 -10
-4 -21 -10 -24 -5 -3 -10 -16 -10 -27 0 -32 -58 -143 -123 -238 -129 -188
-261 -350 -284 -350 -8 0 -16 -6 -19 -14 -3 -8 -42 -53 -87 -100 -45 -47 -109
-115 -142 -151 -36 -39 -74 -69 -95 -77 -19 -6 -49 -19 -67 -29 -17 -10 -34
-15 -39 -11 -4 4 -4 2 -1 -4 8 -13 85 0 102 17 5 5 16 9 25 9 8 0 37 18 63 39
26 22 57 43 68 46 10 4 17 11 13 16 -6 10 198 219 213 219 4 0 14 13 21 30 8
16 20 30 28 30 7 0 20 15 28 34 8 19 26 42 40 51 14 10 26 25 26 35 0 18 24
43 52 53 10 3 15 12 12 20 -7 20 34 67 54 61 15 -5 15 -4 2 5 -13 10 -12 14 5
29 24 20 54 71 97 165 22 45 38 67 50 67 14 0 16 6 12 30 -5 24 2 43 40 100
62 94 105 121 204 131 84 7 575 2 632 -7 19 -3 41 -10 48 -16 8 -7 12 -7 12 1
0 6 9 11 21 11 36 0 15 -22 -73 -75 -122 -74 -237 -167 -238 -193 0 -7 -8 -15
-17 -19 -19 -7 -73 -60 -73 -72 0 -4 5 -12 12 -19 9 -9 9 -15 0 -24 -18 -18
-15 -28 8 -28 25 0 38 29 19 41 -10 6 -11 9 -1 9 7 0 18 11 24 25 12 28 28 33
28 10 0 -20 14 -19 35 1 11 12 13 20 5 29 -7 9 -6 16 4 24 8 7 18 27 22 44 9
44 14 50 30 37 10 -9 18 -6 37 14 17 18 27 22 35 14 16 -16 42 -2 42 24 0 13
7 34 16 46 13 19 18 21 31 11 12 -11 20 -8 43 19 32 37 44 41 35 12 -9 -30 19
-25 33 5 12 25 34 35 30 13 -2 -6 6 -14 17 -16 11 -2 23 -9 27 -16 12 -17 9
-66 -3 -66 -5 0 -7 -5 -4 -11 12 -19 -4 -55 -30 -67 -25 -12 -35 -42 -13 -42
6 0 2 -10 -10 -23 -12 -13 -22 -31 -22 -40 0 -9 -18 -26 -40 -37 -41 -21 -50
-37 -26 -46 9 -4 -7 -25 -50 -69 -35 -35 -64 -66 -64 -69 0 -12 -35 -46 -47
-46 -19 0 -43 -29 -37 -45 4 -8 2 -15 -4 -15 -5 0 -12 -9 -15 -20 -4 -16 -11
-19 -35 -14 -21 4 -31 2 -35 -10 -3 -8 -1 -18 4 -22 6 -4 2 -14 -10 -25 -12
-11 -21 -24 -21 -29 0 -5 -9 -12 -20 -15 -11 -3 -20 -14 -20 -23 0 -10 -17
-35 -38 -57 -41 -42 -122 -158 -122 -173 0 -5 -7 -23 -16 -41 -13 -27 -15 -54
-10 -154 9 -173 8 -168 31 -161 40 11 70 41 68 68 -1 21 1 24 15 15 14 -9 32
4 102 71 47 45 114 108 150 139 35 31 130 120 210 198 80 77 160 153 177 168
18 15 41 40 50 56 10 16 57 57 105 91 53 38 91 72 99 90 14 34 208 214 399
370 262 215 346 277 495 367 158 95 204 127 285 195 107 90 168 136 272 208
46 32 105 78 131 103 27 25 70 56 97 70 27 14 75 49 107 79 l58 54 -68 100
c-37 56 -88 123 -112 150 -25 28 -45 57 -45 65 0 16 -189 199 -233 225 -23 14
-27 14 -57 -11 -17 -15 -37 -27 -44 -27 -8 0 -32 21 -56 46 -37 40 -41 50 -38
82 3 20 8 45 12 54 6 12 -13 37 -73 97 -78 79 -101 94 -101 68 0 -11 -65 -115
-80 -127 -9 -7 -108 -159 -112 -172 -3 -9 -13 -8 -37 1 -32 14 -156 11 -208
-5 -14 -4 -23 -2 -23 5 0 6 8 11 18 11 27 0 97 27 95 37 -1 4 -10 17 -20 28
-11 11 -25 40 -32 64 -14 48 -4 66 31 55 9 -2 19 0 22 5 10 15 -84 26 -117 13
-16 -6 -35 -8 -43 -5 -8 3 -17 -5 -24 -21 -5 -14 -17 -26 -25 -26 -12 0 -14 4
-7 16 5 9 7 26 5 38 -8 36 -58 136 -68 136 -5 0 -25 -9 -43 -20z m238 -166 c0
-2 -7 -4 -15 -4 -8 0 -15 4 -15 10 0 5 7 7 15 4 8 -4 15 -8 15 -10z m-107 -40
c-4 -12 -8 -13 -14 -3 -9 15 -2 32 11 24 5 -3 6 -13 3 -21z m461 -19 c-4 -8
-11 -15 -16 -15 -6 0 -5 6 2 15 7 8 14 15 16 15 2 0 1 -7 -2 -15z m-457 -52
c-3 -10 -5 -4 -5 12 0 17 2 24 5 18 2 -7 2 -21 0 -30z m408 -18 c-15 -20 -24
-39 -21 -42 7 -8 56 39 56 55 0 6 7 12 15 12 13 0 13 -4 3 -22 -7 -13 -19 -27
-25 -31 -18 -11 -16 -27 3 -27 8 0 28 14 43 31 34 36 49 38 124 14 41 -13 66
-28 85 -52 15 -18 42 -51 61 -73 18 -22 30 -40 26 -40 -5 0 0 -9 10 -20 10
-11 22 -17 27 -14 4 3 7 0 6 -8 -2 -7 7 -14 19 -16 12 -2 27 -10 33 -18 7 -8
18 -14 25 -14 7 0 20 -12 30 -27 9 -16 31 -40 48 -54 l31 -27 -19 -41 c-11
-22 -23 -41 -27 -41 -5 0 -8 -7 -8 -15 0 -9 -7 -18 -15 -21 -16 -6 -21 -34 -7
-34 10 0 72 87 72 100 0 6 6 10 14 10 8 0 17 6 19 13 3 6 6 7 6 1 2 -20 -166
-249 -189 -259 -12 -5 -13 -4 -2 6 6 7 12 21 12 31 0 10 7 18 15 18 8 0 15 7
15 15 0 21 -29 19 -37 -2 -4 -10 -12 -22 -20 -26 -7 -4 -13 -12 -13 -17 0 -6
-8 -18 -19 -29 -10 -10 -21 -25 -23 -32 -8 -25 -39 17 -34 46 6 33 52 113 80
140 57 54 91 128 74 158 -24 44 -259 127 -357 127 -70 0 -101 -18 -161 -93
-25 -31 -50 -58 -56 -61 -16 -6 -10 60 7 80 11 13 5 19 -16 14 -5 -1 -2 7 7
17 9 10 25 38 37 63 12 25 30 59 41 75 29 44 33 55 25 63 -3 4 -13 -2 -20 -13
-8 -11 -20 -27 -27 -35 -16 -17 -34 -47 -48 -79 -6 -13 -13 -21 -16 -19 -8 8
7 58 17 58 5 0 9 7 9 15 0 8 9 24 20 35 24 24 27 52 5 44 -8 -4 -15 -12 -15
-20 0 -8 -9 -22 -20 -31 -11 -10 -20 -23 -20 -30 0 -6 -6 -16 -14 -20 -8 -4
-15 -17 -17 -27 -2 -11 -10 -21 -16 -23 -10 -4 -10 0 0 19 23 43 110 173 119
176 4 2 8 9 8 15 0 13 32 49 38 42 3 -2 -8 -21 -23 -40z m-395 -41 c0 -8 -4
-14 -10 -14 -5 0 -10 2 -10 4 0 2 -3 12 -6 20 -5 12 -2 15 10 10 9 -3 16 -12
16 -20z m-13 -46 c-3 -8 -6 -5 -6 6 -1 11 2 17 5 13 3 -3 4 -12 1 -19z m299
-144 c-4 -9 -9 -15 -11 -12 -3 3 -3 13 1 22 4 9 9 15 11 12 3 -3 3 -13 -1 -22z
m-64 -26 c-7 -7 -12 -8 -12 -2 0 14 12 26 19 19 2 -3 -1 -11 -7 -17z m453 -33
c128 -28 175 -47 175 -72 0 -45 -145 -211 -176 -199 -8 3 -27 6 -41 6 -16 0
-27 7 -30 20 -4 15 -9 17 -23 10 -13 -7 -20 -6 -24 6 -3 8 -19 20 -36 25 -16
6 -30 15 -30 20 0 5 -4 9 -10 9 -5 0 -10 -7 -10 -15 0 -19 -14 -19 -31 1 -7 8
-21 13 -31 11 -20 -6 -34 8 -19 17 5 4 7 21 4 39 -3 23 0 37 11 46 9 7 16 21
16 30 0 10 10 27 23 38 42 39 81 40 232 8z m371 -245 c8 0 14 -6 14 -13 0 -8
9 -24 20 -37 14 -16 20 -37 20 -70 0 -57 -17 -75 -79 -83 -24 -3 -47 -10 -50
-14 -3 -5 -22 -9 -42 -9 -25 0 -40 7 -53 24 -12 15 -15 27 -9 31 6 3 14 20 17
38 4 17 27 50 51 75 64 64 69 67 83 63 8 -3 20 -5 28 -5z m-1096 -730 c0 -4
10 -11 23 -15 14 -4 17 -8 9 -12 -19 -7 -39 3 -52 26 -9 17 -8 20 5 15 8 -4
15 -10 15 -14z m-1410 -40 c0 -5 -4 -10 -10 -10 -5 0 -10 5 -10 10 0 6 5 10
10 10 6 0 10 -4 10 -10z m47 -108 c-17 -3 -17 -6 -3 -26 14 -22 13 -23 -14
-24 -23 0 -27 3 -23 19 4 14 0 19 -16 19 -12 0 -21 -6 -21 -15 0 -18 -27 -20
-32 -3 -3 7 -11 9 -24 4 -19 -8 -19 -8 1 -17 18 -9 18 -9 -2 -5 -13 2 -23 0
-23 -5 0 -5 -5 -9 -11 -9 -8 0 -9 4 0 13 6 8 8 17 4 20 -12 12 -22 7 -28 -13
-9 -28 -30 -25 -31 5 -2 34 35 44 151 42 50 0 82 -3 72 -5z m53 -31 c0 -6 -4
-13 -10 -16 -5 -3 -10 1 -10 9 0 9 5 16 10 16 6 0 10 -4 10 -9z m70 -5 c0 -3
-4 -8 -10 -11 -5 -3 -10 -1 -10 4 0 6 5 11 10 11 6 0 10 -2 10 -4z m63 -3 c-7
-2 -19 -2 -25 0 -7 3 -2 5 12 5 14 0 19 -2 13 -5z m80 0 c-7 -2 -21 -2 -30 0
-10 3 -4 5 12 5 17 0 24 -2 18 -5z m84 1 c-3 -3 -12 -4 -19 -1 -8 3 -5 6 6 6
11 1 17 -2 13 -5z m73 -4 c0 -13 -11 -13 -30 0 -12 8 -11 10 8 10 12 0 22 -4
22 -10z m152 -13 c14 -1 30 -5 34 -9 4 -5 18 -8 32 -8 15 0 26 -7 29 -20 3
-11 9 -20 14 -20 5 0 9 -7 9 -16 0 -8 -4 -13 -9 -9 -5 3 -12 1 -16 -5 -9 -15
-25 -12 -25 4 0 29 -88 72 -169 82 -49 6 -32 14 20 9 30 -3 66 -6 81 -8z
m-815 -3 c-3 -3 -12 -4 -19 -1 -8 3 -5 6 6 6 11 1 17 -2 13 -5z m936 -126 c4
-13 0 -26 -10 -33 -11 -9 -13 -14 -5 -19 21 -12 14 -28 -7 -17 -14 8 -18 19
-15 43 1 18 3 36 3 41 2 17 29 5 34 -15z m-73 -178 c0 -5 -4 -10 -10 -10 -5 0
-10 5 -10 10 0 6 5 10 10 10 6 0 10 -4 10 -10z m-462 -59 c3 -8 -1 -12 -9 -9
-7 2 -15 10 -17 17 -3 8 1 12 9 9 7 -2 15 -10 17 -17z m419 -3 c-3 -8 -6 -5
-6 6 -1 11 2 17 5 13 3 -3 4 -12 1 -19z m-32 -47 c3 -5 1 -12 -5 -16 -5 -3
-10 1 -10 9 0 18 6 21 15 7z m-25 -62 c0 -5 -7 -9 -15 -9 -9 0 -12 6 -9 15 6
15 24 11 24 -6z m-70 -99 c0 -5 -4 -10 -10 -10 -5 0 -10 5 -10 10 0 6 5 10 10
10 6 0 10 -4 10 -10z m-50 -61 c0 -5 -4 -9 -10 -9 -5 0 -10 7 -10 16 0 8 5 12
10 9 6 -3 10 -10 10 -16z m-50 -49 c0 -5 -5 -10 -11 -10 -5 0 -7 5 -4 10 3 6
8 10 11 10 2 0 4 -4 4 -10z m-198 -222 c-7 -7 -12 -8 -12 -2 0 14 12 26 19 19
2 -3 -1 -11 -7 -17z m-122 -158 c0 -5 -2 -10 -4 -10 -3 0 -8 5 -11 10 -3 6 -1
10 4 10 6 0 11 -4 11 -10z m-45 -60 c3 -5 1 -10 -4 -10 -6 0 -11 5 -11 10 0 6
2 10 4 10 3 0 8 -4 11 -10z m5 -61 c0 -5 -6 -18 -12 -30 -11 -17 -10 -22 5
-30 9 -6 15 -15 11 -20 -13 -21 -34 14 -34 57 0 34 3 42 15 38 8 -4 15 -10 15
-15z m9 -128 c7 -5 10 -14 6 -20 -5 -9 -10 -9 -21 0 -26 22 -14 38 15 20z"/>
<path d="M13920 5584 c0 -9 5 -14 12 -12 18 6 21 28 4 28 -9 0 -16 -7 -16 -16z"/>
<path d="M2308 5922 l-58 -3 0 -334 0 -335 60 0 60 0 2 167 3 167 40 23 c45
25 72 28 109 12 38 -18 46 -58 46 -220 l0 -149 61 0 61 0 -4 183 c-3 203 -11
229 -78 274 -43 30 -127 31 -189 3 -24 -11 -45 -20 -47 -20 -2 0 -5 53 -6 118
l-3 117 -57 -3z"/>
<path d="M8338 5923 l-58 -4 0 -334 0 -335 60 0 60 0 0 340 c0 187 -1 339 -2
338 -2 -1 -29 -3 -60 -5z"/>
<path d="M7070 5900 c-29 -29 -26 -74 7 -100 46 -36 106 -8 106 49 0 63 -70
94 -113 51z"/>
<path d="M1630 5855 l0 -44 98 -3 97 -3 3 -277 2 -278 60 0 60 0 2 278 3 277
111 3 111 3 -10 44 -10 45 -264 0 -263 0 0 -45z"/>
<path d="M3580 5575 l0 -325 60 0 60 0 2 216 3 216 150 -216 149 -216 58 0 58
0 0 325 0 325 -60 0 -60 0 0 -212 c0 -149 -3 -209 -11 -201 -5 5 -72 100 -148
209 l-138 199 -62 3 -61 3 0 -326z"/>
<path d="M5830 5608 c-62 -161 -119 -308 -127 -326 l-14 -33 63 3 62 3 26 65
c14 36 29 71 33 78 12 17 231 17 245 -1 6 -7 21 -41 35 -77 l24 -65 49 4 c27
1 54 6 61 10 7 4 -29 106 -114 319 l-125 312 -52 0 -52 0 -114 -292z m209 9
c23 -59 41 -109 41 -112 0 -3 -38 -5 -85 -5 -47 0 -85 4 -85 9 0 5 6 24 14 42
7 19 26 67 41 107 15 40 29 72 30 70 2 -2 22 -51 44 -111z"/>
<path d="M2947 5716 c-100 -28 -156 -110 -157 -229 0 -106 38 -174 125 -220
54 -29 181 -31 243 -3 32 14 41 24 36 35 -3 9 -11 29 -16 44 -9 23 -15 27 -32
22 -81 -25 -108 -27 -152 -10 -41 16 -74 53 -74 85 0 6 53 10 155 10 l155 0 0
38 c0 90 -48 185 -110 217 -41 21 -119 26 -173 11z m124 -109 c18 -13 39 -50
39 -66 0 -7 -34 -11 -95 -11 -108 0 -118 9 -66 61 23 22 39 29 68 29 21 0 45
-6 54 -13z"/>
<path d="M4415 5719 c-52 -12 -109 -59 -138 -112 -29 -56 -31 -184 -3 -237 48
-90 108 -124 221 -125 79 0 165 24 165 47 0 8 -28 67 -35 76 -2 2 -25 -4 -51
-13 -65 -22 -119 -12 -161 30 -61 61 -53 65 122 65 l155 0 -1 53 c-1 85 -40
163 -98 195 -44 25 -122 34 -176 21z m116 -109 c16 -9 49 -58 49 -75 0 -3 -45
-5 -100 -5 -55 0 -100 2 -100 5 0 15 32 65 47 74 23 13 79 14 104 1z"/>
<path d="M7895 5720 c-23 -5 -54 -14 -71 -22 l-30 -13 14 -48 c12 -43 16 -48
35 -42 12 3 50 9 85 12 67 6 94 -6 105 -48 5 -17 -1 -19 -56 -19 -88 -1 -156
-27 -185 -70 -32 -48 -28 -137 9 -176 53 -58 132 -69 217 -29 51 24 53 24 65
5 8 -13 23 -20 44 -20 l33 0 0 164 c0 92 -5 177 -11 193 -17 46 -69 92 -123
108 -54 16 -71 17 -131 5z m143 -302 c3 -33 -1 -40 -30 -58 -58 -35 -138 -20
-138 26 0 49 40 74 115 71 l50 -2 3 -37z"/>
<path d="M4772 5703 c-29 -4 -32 -7 -26 -26 4 -12 38 -113 76 -224 l70 -203
52 0 52 0 44 140 c24 77 46 138 49 134 3 -3 27 -65 52 -137 l47 -132 50 -3 49
-3 72 207 c98 285 96 256 21 252 l-63 -3 -37 -130 c-35 -121 -38 -128 -49
-102 -6 16 -11 31 -11 34 0 3 -14 50 -30 104 l-31 99 -68 0 -68 0 -33 -117
c-18 -65 -36 -124 -40 -132 -7 -13 -17 16 -67 186 -20 69 -17 67 -111 56z"/>
<path d="M6370 5480 l0 -230 60 0 60 0 0 150 0 150 53 30 c28 16 60 30 69 30
24 0 30 15 22 56 -10 55 -46 58 -119 8 l-39 -26 -18 24 c-9 12 -18 26 -18 31
0 4 -16 7 -35 7 l-35 0 0 -230z"/>
<path d="M6710 5480 l0 -230 60 0 60 0 0 148 0 148 42 27 c24 15 59 32 79 37
l36 10 -10 45 c-9 39 -14 45 -37 45 -14 0 -47 -13 -73 -30 -26 -16 -50 -30
-52 -30 -3 0 -11 14 -20 30 -13 25 -22 30 -50 30 l-35 0 0 -230z"/>
<path d="M7060 5480 l0 -230 60 0 60 0 0 230 0 230 -60 0 -60 0 0 -230z"/>
<path d="M7282 5703 c-26 -4 -32 -8 -27 -21 3 -9 43 -110 88 -225 l82 -208 54
3 53 3 89 225 c49 124 89 226 89 228 0 1 -29 2 -64 2 l-64 0 -47 -135 c-26
-74 -51 -133 -54 -130 -4 2 -30 63 -57 134 -54 146 -43 136 -142 124z"/>
<path d="M11668 5623 c-58 -19 -113 -65 -173 -143 -62 -81 -60 -89 23 -89 42
0 74 5 86 14 19 14 19 15 -7 39 -15 14 -27 29 -27 34 0 15 24 32 45 32 12 0
36 11 55 25 19 14 36 25 38 25 7 0 -10 -65 -19 -74 -15 -16 -10 -73 7 -87 13
-11 14 -9 9 14 -6 23 -4 27 13 27 20 0 32 -18 32 -50 0 -19 19 -30 49 -30 15
0 20 14 28 93 6 58 6 104 0 124 -16 52 -83 72 -159 46z"/>
<path d="M12559 5523 c-13 -17 -13 -17 6 -3 11 8 22 16 24 17 2 2 0 3 -6 3 -6
0 -17 -8 -24 -17z"/>
<path d="M12890 5496 c0 -2 7 -6 15 -10 8 -3 15 -1 15 4 0 6 -7 10 -15 10 -8
0 -15 -2 -15 -4z"/>
<path d="M12356 5433 c-124 -41 -303 -70 -440 -72 -54 -1 -67 -4 -58 -13 9 -9
56 -8 209 6 173 15 205 21 267 47 122 51 135 69 22 32z"/>
<path d="M11427 5353 c-12 -11 -8 -23 8 -23 8 0 15 7 15 15 0 16 -12 20 -23 8z"/>
<path d="M11487 5353 c-12 -11 -8 -23 8 -23 8 0 15 7 15 15 0 16 -12 20 -23 8z"/>
<path d="M11350 5340 c0 -5 9 -10 20 -10 11 0 20 5 20 10 0 6 -9 10 -20 10
-11 0 -20 -4 -20 -10z"/>
<path d="M11590 5330 c0 -5 5 -10 10 -10 6 0 10 5 10 10 0 6 -4 10 -10 10 -5
0 -10 -4 -10 -10z"/>
<path d="M11650 5330 c0 -5 5 -10 10 -10 6 0 10 5 10 10 0 6 -4 10 -10 10 -5
0 -10 -4 -10 -10z"/>
<path d="M11316 5317 c-14 -10 -16 -16 -7 -22 15 -9 35 8 30 24 -3 8 -10 7
-23 -2z"/>
<path d="M11687 5318 c4 -7 9 -37 9 -66 2 -57 6 -68 24 -57 8 5 8 11 0 19 -5
8 -8 35 -5 65 5 47 3 51 -15 51 -15 0 -19 -4 -13 -12z"/>
<path d="M11267 5283 c-4 -3 -7 -11 -7 -17 0 -6 5 -5 12 2 6 6 9 14 7 17 -3 3
-9 2 -12 -2z"/>
<path d="M11390 5200 c0 -5 5 -10 10 -10 6 0 10 5 10 10 0 6 -4 10 -10 10 -5
0 -10 -4 -10 -10z"/>
<path d="M11290 5174 c0 -8 5 -12 10 -9 6 4 8 11 5 16 -9 14 -15 11 -15 -7z"/>
<path d="M14786 5136 c-11 -60 -120 -208 -244 -333 -134 -134 -217 -207 -282
-248 -25 -15 -65 -46 -90 -68 -25 -22 -56 -44 -70 -51 -14 -6 -31 -16 -38 -23
-7 -7 -86 -61 -175 -119 -256 -168 -310 -205 -337 -229 -14 -12 -47 -35 -75
-50 -64 -36 -88 -58 -135 -120 -77 -102 -171 -184 -302 -260 -257 -150 -330
-195 -483 -298 -302 -202 -355 -239 -355 -248 0 -5 -5 -9 -11 -9 -7 0 -42 -15
-78 -34 -37 -18 -102 -44 -145 -56 -44 -12 -113 -37 -155 -56 -71 -33 -212
-120 -219 -136 -2 -5 -8 -8 -13 -8 -6 0 -55 -30 -109 -66 -73 -48 -131 -98
-217 -189 -125 -130 -205 -188 -253 -183 -22 2 -37 -7 -73 -48 -32 -35 -65
-59 -109 -78 -35 -15 -81 -36 -103 -45 -182 -81 -444 -154 -692 -196 -173 -29
-412 -49 -463 -40 -86 16 -240 102 -240 135 0 26 8 29 93 40 102 13 284 58
502 125 61 19 141 43 178 55 99 30 552 249 642 310 46 31 226 140 231 140 7 0
148 102 199 144 81 67 105 88 166 146 32 30 70 63 84 73 14 10 23 22 20 28
-10 16 -25 10 -25 -10 0 -10 -9 -21 -20 -24 -17 -4 -20 -2 -15 13 3 10 1 21
-5 25 -7 4 -14 -2 -17 -14 -3 -12 -13 -21 -24 -21 -11 0 -19 -6 -19 -14 0 -20
-60 -32 -72 -15 -7 10 -8 8 -3 -8 7 -27 -10 -39 -24 -16 -5 10 -13 14 -17 10
-5 -5 -3 -12 4 -16 7 -4 10 -15 6 -25 -5 -13 -9 -14 -20 -5 -21 18 -18 -20 4
-44 17 -19 16 -20 -6 -8 -13 7 -27 22 -31 34 -9 21 -9 21 -16 -5 -7 -26 -11
-28 -61 -28 -42 0 -56 -4 -61 -17 -4 -9 -1 -19 5 -21 7 -2 12 -11 12 -20 -1
-15 -3 -14 -15 2 -13 17 -19 18 -55 7 -23 -7 -50 -9 -60 -6 -12 4 -20 2 -20
-4 0 -6 -8 -11 -17 -11 -16 0 -16 2 -3 11 13 9 13 10 0 6 -8 -2 -17 -14 -18
-28 -2 -13 -10 -31 -17 -39 -8 -8 -14 -17 -14 -20 0 -33 -34 -53 -45 -27 -3 8
-8 7 -16 -5 -6 -10 -20 -18 -31 -18 -11 0 -32 -13 -47 -29 -29 -32 -76 -55
-103 -52 -19 2 -126 -45 -150 -65 -9 -8 -34 -15 -56 -17 -22 -1 -47 -8 -55
-15 -8 -6 -29 -15 -46 -18 -18 -4 -32 -10 -32 -13 0 -4 -16 -13 -35 -20 -19
-7 -35 -17 -35 -22 0 -5 -7 -9 -15 -9 -8 0 -30 -16 -50 -35 -25 -25 -35 -31
-35 -19 0 11 -5 14 -16 10 -20 -8 -43 10 -55 43 -14 35 -31 13 -33 -43 -1 -34
-6 -49 -22 -61 -20 -13 -23 -13 -28 2 -5 12 -9 14 -18 5 -17 -17 -36 -15 -40
6 -3 13 -8 9 -23 -16 -13 -21 -30 -36 -48 -39 -15 -3 -30 -9 -32 -13 -3 -5
-14 -6 -25 -3 -13 3 -26 -2 -37 -16 -17 -20 -29 -22 -153 -24 l-135 -2 -15
-32 c-8 -18 -23 -33 -32 -33 -10 0 -27 -9 -38 -20 -11 -11 -25 -20 -30 -20 -6
0 -20 -6 -31 -13 -17 -9 -23 -9 -26 1 -3 6 -11 12 -19 12 -8 0 -14 7 -14 15 0
8 -4 15 -8 15 -11 0 -56 85 -78 150 -17 50 -19 52 -22 26 -4 -32 26 -140 61
-221 44 -103 164 -222 274 -271 106 -47 172 -57 439 -62 296 -5 335 2 484 87
53 30 149 71 168 71 22 0 162 49 230 81 35 16 90 55 126 88 64 60 65 60 123
58 53 -1 69 4 173 57 63 32 138 73 165 91 28 17 67 42 87 54 21 12 46 33 55
45 21 26 96 71 135 80 15 3 69 34 120 69 376 255 508 351 508 370 0 21 42 54
77 62 18 3 65 29 105 56 92 63 327 221 350 234 84 50 155 93 218 132 41 25
113 68 160 95 134 78 178 116 210 179 22 43 37 59 69 74 39 17 42 17 61 0 21
-19 50 -14 50 10 0 10 9 15 26 15 30 0 84 35 84 55 0 8 10 17 23 20 55 16 79
30 87 51 6 15 22 27 49 34 25 6 48 22 61 40 12 17 30 30 41 30 10 0 36 15 56
33 21 18 52 39 69 46 17 7 41 25 53 42 12 16 31 29 42 29 12 0 36 16 53 35 18
19 38 35 45 35 22 0 69 33 74 52 3 10 18 21 34 24 33 7 53 20 74 53 8 13 30
29 49 35 24 8 39 21 49 43 11 24 25 36 55 45 29 9 42 20 46 37 3 14 19 32 35
41 17 9 37 32 47 51 9 19 28 41 43 49 15 8 29 26 32 42 3 16 15 34 27 40 27
14 36 28 36 54 0 12 8 31 19 43 11 12 22 45 26 76 6 50 4 60 -25 110 -17 30
-35 55 -40 55 -4 0 -11 -15 -14 -34z m-3436 -2056 c0 -5 -8 -10 -17 -10 -15 0
-16 2 -3 10 19 12 20 12 20 0z m-70 -30 c0 -5 -4 -10 -9 -10 -6 0 -13 5 -16
10 -3 6 1 10 9 10 9 0 16 -4 16 -10z m-47 -35 c-3 -9 -8 -14 -10 -11 -3 3 -2
9 2 15 9 16 15 13 8 -4z m-173 -75 c0 -5 -4 -10 -10 -10 -5 0 -10 5 -10 10 0
6 5 10 10 10 6 0 10 -4 10 -10z"/>
<path d="M11165 5150 c-3 -5 -1 -10 4 -10 6 0 11 5 11 10 0 6 -2 10 -4 10 -3
0 -8 -4 -11 -10z"/>
<path d="M11237 5130 c-3 -11 -1 -20 4 -20 5 0 9 6 9 14 0 8 6 17 13 19 7 4 6
6 -4 6 -9 1 -19 -8 -22 -19z"/>
<path d="M11072 5120 c-18 -29 -15 -38 4 -12 9 13 14 25 12 27 -2 2 -9 -5 -16
-15z"/>
<path d="M11622 5090 c0 -19 2 -27 5 -17 2 9 2 25 0 35 -3 9 -5 1 -5 -18z"/>
<path d="M11120 5095 c0 -8 5 -15 10 -15 6 0 10 7 10 15 0 8 -4 15 -10 15 -5
0 -10 -7 -10 -15z"/>
<path d="M11037 5049 c-20 -36 -13 -55 9 -25 12 17 20 56 12 56 -2 0 -11 -14
-21 -31z"/>
<path d="M11585 5070 c3 -5 8 -10 11 -10 2 0 4 5 4 10 0 6 -5 10 -11 10 -5 0
-7 -4 -4 -10z"/>
<path d="M11091 5041 c-8 -6 -9 -11 -3 -15 6 -3 14 -1 17 5 9 14 2 20 -14 10z"/>
<path d="M11420 5025 c0 -8 7 -15 15 -15 8 0 15 7 15 15 0 8 -7 15 -15 15 -8
0 -15 -7 -15 -15z"/>
<path d="M11596 5027 c4 -12 -77 -100 -90 -98 -19 3 -26 -1 -26 -13 0 -10 10
-14 30 -14 25 1 29 4 25 20 -5 14 -1 18 15 18 13 0 24 8 27 20 3 11 9 20 13
20 4 0 10 8 14 18 3 9 9 23 12 30 3 7 -1 12 -10 12 -8 0 -13 -6 -10 -13z"/>
<path d="M11657 5021 c-4 -17 -3 -21 5 -13 5 5 8 16 6 23 -3 8 -7 3 -11 -10z"/>
<path d="M11735 5020 c3 -5 15 -10 25 -10 10 0 22 5 25 10 4 6 -7 10 -25 10
-18 0 -29 -4 -25 -10z"/>
<path d="M11696 4984 c-10 -26 0 -28 23 -5 20 20 20 21 2 21 -10 0 -22 -7 -25
-16z"/>
<path d="M11960 4980 c-13 -8 -12 -10 3 -10 9 0 17 5 17 10 0 12 -1 12 -20 0z"/>
<path d="M11995 4940 c-3 -5 1 -10 9 -10 9 0 16 5 16 10 0 6 -4 10 -9 10 -6 0
-13 -4 -16 -10z"/>
<path d="M11447 4924 c-4 -4 -7 -19 -7 -33 l0 -25 16 23 c15 21 7 51 -9 35z"/>
<path d="M11711 4914 c0 -11 3 -14 6 -6 3 7 2 16 -1 19 -3 4 -6 -2 -5 -13z"/>
<path d="M11375 4906 c-41 -18 -94 -80 -72 -84 17 -4 57 26 57 43 0 6 14 16
30 22 17 6 30 16 30 22 0 14 -8 13 -45 -3z"/>
<path d="M12154 4865 c1 -35 4 -40 24 -39 12 0 88 1 169 2 142 2 146 3 127 20
-10 10 -27 19 -37 19 -11 1 -25 10 -31 19 -16 21 -36 11 -29 -14 4 -17 -3 -19
-54 -22 -92 -5 -97 -4 -120 4 -18 6 -23 4 -23 -10 0 -28 -18 -4 -23 31 -3 22
-4 19 -3 -10z"/>
<path d="M11701 4874 c0 -11 3 -14 6 -6 3 7 2 16 -1 19 -3 4 -6 -2 -5 -13z"/>
<path d="M12121 4868 c-1 -26 -23 -39 -34 -20 -2 4 -2 1 -1 -5 4 -16 -8 -17
-24 -1 -9 10 -16 8 -29 -5 -16 -16 -14 -17 32 -17 63 0 73 7 64 45 l-7 30 -1
-27z"/>
<path d="M12330 4880 c-8 -5 -10 -10 -5 -10 6 0 17 5 25 10 8 5 11 10 5 10 -5
0 -17 -5 -25 -10z"/>
<path d="M12295 4870 c3 -5 8 -10 11 -10 2 0 4 5 4 10 0 6 -5 10 -11 10 -5 0
-7 -4 -4 -10z"/>
<path d="M11875 4861 c-6 -11 9 -23 19 -14 9 9 7 23 -3 23 -6 0 -12 -4 -16 -9z"/>
<path d="M12502 4852 c2 -10 15 -18 31 -20 25 -3 27 -1 19 15 -13 24 -54 28
-50 5z"/>
<path d="M11760 4852 c-8 -3 -23 -13 -34 -23 -17 -16 -17 -19 -3 -25 19 -7 40
3 32 16 -3 5 4 10 15 12 11 2 17 7 12 14 -4 6 -14 9 -22 6z"/>
<path d="M11945 4850 c-3 -5 1 -10 9 -10 9 0 16 5 16 10 0 6 -4 10 -9 10 -6 0
-13 -4 -16 -10z"/>
<path d="M12600 4840 c0 -5 5 -10 10 -10 6 0 10 5 10 10 0 6 -4 10 -10 10 -5
0 -10 -4 -10 -10z"/>
<path d="M11980 4830 c0 -5 5 -10 10 -10 6 0 10 5 10 10 0 6 -4 10 -10 10 -5
0 -10 -4 -10 -10z"/>
<path d="M11008 4823 c28 -4 32 -7 27 -26 -6 -20 -5 -21 8 -4 18 21 33 22 45
0 8 -13 10 -11 10 10 0 26 -2 27 -62 25 -35 -1 -47 -3 -28 -5z"/>
<path d="M11635 4810 c3 -5 12 -10 20 -10 8 0 17 5 20 10 4 6 -5 10 -20 10
-15 0 -24 -4 -20 -10z"/>
<path d="M11255 4780 c-16 -16 -23 -30 -17 -30 16 0 54 39 50 51 -2 6 -16 -4
-33 -21z"/>
<path d="M10950 4770 c0 -11 6 -20 13 -20 7 0 13 9 14 20 1 11 -4 20 -13 20
-8 0 -14 -9 -14 -20z"/>
<path d="M11076 4761 c-4 -7 -5 -15 -2 -18 9 -9 19 4 14 18 -4 11 -6 11 -12 0z"/>
<path d="M4498 4742 l-58 -3 0 -334 0 -335 60 0 60 0 0 169 0 169 43 21 c57
28 92 27 122 -4 25 -24 25 -27 25 -190 l0 -165 60 0 60 0 0 183 c0 170 -2 185
-23 222 -31 55 -76 77 -152 73 -33 -2 -75 -12 -94 -21 -19 -9 -35 -17 -37 -17
-2 0 -5 53 -6 118 l-3 117 -57 -3z"/>
<path d="M4040 4731 c-80 -17 -132 -62 -150 -132 -24 -87 24 -159 149 -229
152 -85 170 -102 157 -154 -12 -48 -124 -62 -218 -26 -58 22 -62 20 -73 -39
-5 -27 -3 -38 11 -48 52 -38 195 -53 276 -29 139 40 182 199 79 288 -21 18
-74 53 -117 77 -116 64 -144 87 -144 119 0 15 4 32 8 38 25 37 105 44 181 15
l49 -18 20 48 21 48 -55 20 c-63 24 -144 33 -194 22z"/>
<path d="M11203 4725 c-8 -9 -9 -16 -3 -20 6 -3 10 -1 10 4 0 6 7 11 16 11 8
0 12 5 9 10 -8 13 -18 12 -32 -5z"/>
<path d="M10926 4721 c-4 -7 -5 -15 -2 -18 9 -9 19 4 14 18 -4 11 -6 11 -12 0z"/>
<path d="M11210 4680 c-8 -5 -12 -12 -9 -15 4 -3 12 1 19 10 14 17 11 19 -10
5z"/>
<path d="M5147 4539 c-86 -20 -137 -69 -163 -155 -17 -57 -17 -87 -3 -155 14
-65 83 -141 144 -158 128 -35 268 22 311 125 20 48 18 170 -5 219 -46 103
-161 153 -284 124z m136 -119 c34 -27 51 -81 44 -143 -7 -56 -27 -83 -75 -104
-43 -18 -94 -8 -123 23 -18 19 -24 39 -27 89 -5 76 10 120 47 140 39 21 104
19 134 -5z"/>
<path d="M5705 4539 c-52 -12 -109 -59 -138 -112 -29 -56 -31 -184 -3 -237 48
-90 108 -124 221 -125 79 0 165 24 165 47 0 8 -28 67 -35 76 -2 2 -25 -4 -51
-13 -65 -22 -119 -12 -161 30 -61 61 -53 65 122 65 l155 0 -1 53 c-1 85 -40
163 -98 195 -44 25 -122 34 -176 21z m116 -109 c16 -9 49 -58 49 -75 0 -3 -45
-5 -100 -5 -55 0 -100 2 -100 5 0 15 32 65 47 74 23 13 79 14 104 1z"/>
<path d="M6163 4539 c-76 -18 -124 -88 -108 -159 9 -39 65 -85 137 -111 140
-52 103 -132 -44 -94 -34 8 -62 14 -62 13 -44 -90 -44 -88 38 -113 147 -45
276 14 276 126 0 66 -33 102 -138 151 -72 33 -83 42 -80 61 3 20 8 22 58 21
30 0 69 -4 86 -8 29 -7 31 -6 47 34 l16 42 -42 18 c-54 23 -131 31 -184 19z"/>
<path d="M10946 4511 c-4 -5 -29 -12 -56 -16 -60 -8 -72 -35 -16 -35 56 0 105
24 106 53 0 10 -28 9 -34 -2z"/>
<path d="M12175 4504 c-11 -11 -13 -20 -7 -26 13 -13 28 -3 35 22 6 24 -6 26
-28 4z"/>
<path d="M12095 4479 c-4 -6 -4 -13 -1 -16 8 -8 36 5 36 17 0 13 -27 13 -35
-1z"/>
<path d="M12021 4467 c-12 -15 -5 -27 16 -27 7 0 13 9 13 20 0 23 -13 26 -29
7z"/>
<path d="M12163 4435 c-3 -9 -3 -19 1 -22 7 -7 36 16 36 28 0 15 -30 10 -37
-6z"/>
<path d="M12087 4416 c-3 -8 -3 -16 0 -19 9 -10 33 5 33 19 0 18 -26 18 -33 0z"/>
<path d="M12022 4408 c-14 -14 -16 -38 -3 -38 5 0 14 7 21 15 17 20 0 41 -18
23z"/>
<path d="M11936 4381 c-16 -17 -16 -19 1 -25 18 -7 47 20 37 35 -8 14 -19 11
-38 -10z"/>
<path d="M11857 4373 c-13 -12 -7 -43 8 -43 12 0 35 28 35 44 0 8 -35 7 -43
-1z"/>
<path d="M12082 4358 c-18 -18 -15 -28 8 -28 13 0 20 7 20 20 0 23 -10 26 -28
8z"/>
<path d="M12006 4334 c-4 -9 -4 -19 -2 -22 10 -9 36 8 36 23 0 20 -26 19 -34
-1z"/>
<path d="M10904 4283 c-22 -23 -51 -44 -65 -47 -13 -2 -37 -8 -54 -11 l-30 -7
25 -13 c36 -21 52 -18 97 14 33 24 84 98 71 104 -1 1 -21 -17 -44 -40z"/>
<path d="M11097 4323 c-4 -3 -7 -11 -7 -17 0 -6 5 -5 12 2 6 6 9 14 7 17 -3 3
-9 2 -12 -2z"/>
<path d="M11924 4319 c-11 -18 13 -34 31 -19 8 7 15 16 15 21 0 13 -38 11 -46
-2z"/>
<path d="M11863 4313 c-16 -6 -17 -43 -2 -43 12 0 38 29 39 43 0 8 -18 8 -37
0z"/>
<path d="M12083 4293 c-15 -6 -17 -33 -3 -33 5 0 14 9 20 20 11 20 6 23 -17
13z"/>
<path d="M12002 4278 c-7 -7 -12 -16 -12 -20 0 -12 28 -10 36 3 10 17 -10 31
-24 17z"/>
<path d="M11920 4255 c-10 -12 -9 -16 5 -21 17 -7 38 13 29 28 -8 12 -20 10
-34 -7z"/>
<path d="M11843 4235 c-7 -20 0 -27 20 -19 25 9 30 34 6 34 -11 0 -22 -7 -26
-15z"/>
<path d="M11636 4214 c-14 -15 -26 -33 -26 -40 0 -8 -3 -14 -7 -14 -8 0 -28
-31 -71 -110 -14 -25 -28 -47 -31 -50 -13 -10 -72 -122 -67 -127 9 -10 36 6
43 24 10 29 35 53 55 53 10 0 19 3 19 8 1 4 3 17 4 29 3 33 23 52 46 46 12 -4
25 0 30 8 16 25 10 36 -16 31 -19 -3 -25 0 -25 14 0 14 2 16 9 6 15 -25 48 7
55 52 4 22 14 48 22 58 15 16 12 38 -5 38 -5 0 -20 -12 -35 -26z"/>
<path d="M11770 4225 c-10 -12 -10 -19 -2 -27 15 -15 48 14 38 31 -10 15 -21
14 -36 -4z"/>
<path d="M11993 4213 c-18 -7 -16 -33 2 -33 8 0 15 2 15 4 0 2 3 11 6 20 6 16
0 19 -23 9z"/>
<path d="M11070 4195 c-8 -9 -8 -15 -2 -15 12 0 26 19 19 26 -2 2 -10 -2 -17
-11z"/>
<path d="M11917 4192 c-10 -11 -14 -23 -9 -26 12 -7 35 19 30 34 -2 7 -11 3
-21 -8z"/>
<path d="M11840 4175 c-7 -9 -10 -18 -7 -21 10 -11 37 5 37 21 0 19 -14 19
-30 0z"/>
<path d="M11760 4155 c-19 -23 -1 -39 21 -19 10 9 19 21 19 26 0 13 -27 9 -40
-7z"/>
<path d="M11056 4141 c-4 -7 -5 -15 -2 -18 9 -9 19 4 14 18 -4 11 -6 11 -12 0z"/>
<path d="M11687 4143 c-12 -11 -7 -33 7 -33 12 0 26 20 26 36 0 7 -26 5 -33
-3z"/>
<path d="M11977 4143 c-12 -11 -7 -33 7 -33 12 0 26 20 26 36 0 7 -26 5 -33
-3z"/>
<path d="M11896 4124 c-4 -9 -4 -19 -2 -22 10 -9 36 8 36 23 0 20 -26 19 -34
-1z"/>
<path d="M11821 4106 c-8 -10 -9 -16 -1 -21 13 -8 30 3 30 21 0 18 -14 18 -29
0z"/>
<path d="M11131 4084 c0 -11 3 -14 6 -6 3 7 2 16 -1 19 -3 4 -6 -2 -5 -13z"/>
<path d="M11746 4084 c-8 -21 -3 -26 18 -18 9 3 16 12 16 20 0 19 -26 18 -34
-2z"/>
<path d="M11676 4074 c-11 -28 -7 -35 14 -24 23 12 27 40 6 40 -8 0 -17 -7
-20 -16z"/>
<path d="M11035 4070 c-3 -5 1 -10 9 -10 9 0 16 5 16 10 0 6 -4 10 -9 10 -6 0
-13 -4 -16 -10z"/>
<path d="M10995 4060 c-3 -5 -1 -10 4 -10 6 0 11 5 11 10 0 6 -2 10 -4 10 -3
0 -8 -4 -11 -10z"/>
<path d="M11887 4063 c-10 -10 -8 -33 3 -33 5 0 14 9 20 20 8 15 8 20 -3 20
-8 0 -17 -3 -20 -7z"/>
<path d="M11821 4051 c-7 -5 -11 -16 -9 -26 3 -16 5 -15 21 3 19 21 11 37 -12
23z"/>
<path d="M10940 4039 c0 -5 5 -7 10 -4 6 3 10 8 10 11 0 2 -4 4 -10 4 -5 0
-10 -5 -10 -11z"/>
<path d="M10660 4030 l-35 -7 40 -2 c22 0 47 4 55 9 12 8 11 9 -5 9 -11 -1
-36 -5 -55 -9z"/>
<path d="M11740 4025 c-7 -9 -10 -18 -7 -21 10 -11 37 5 37 21 0 19 -14 19
-30 0z"/>
<path d="M11435 4020 c-3 -5 -1 -10 4 -10 6 0 11 5 11 10 0 6 -2 10 -4 10 -3
0 -8 -4 -11 -10z"/>
<path d="M11027 4013 c-12 -11 -8 -23 8 -23 8 0 15 7 15 15 0 16 -12 20 -23 8z"/>
<path d="M11666 4004 c-8 -21 -3 -26 18 -18 9 3 16 12 16 20 0 19 -26 18 -34
-2z"/>
<path d="M10976 4001 c-4 -7 -5 -15 -2 -18 9 -9 19 4 14 18 -4 11 -6 11 -12 0z"/>
<path d="M11608 4002 c-10 -2 -18 -12 -18 -22 0 -23 25 -17 34 7 8 19 6 20
-16 15z"/>
<path d="M10925 3980 c-3 -5 -1 -10 4 -10 6 0 11 5 11 10 0 6 -2 10 -4 10 -3
0 -8 -4 -11 -10z"/>
<path d="M11800 3975 c-7 -9 -10 -18 -7 -22 8 -7 37 15 37 28 0 14 -16 11 -30
-6z"/>
<path d="M10870 3965 c-8 -9 -8 -15 -2 -15 12 0 26 19 19 26 -2 2 -10 -2 -17
-11z"/>
<path d="M11405 3961 c-3 -5 -1 -12 5 -16 5 -3 10 1 10 9 0 18 -6 21 -15 7z"/>
<path d="M11723 3955 c-3 -9 -3 -18 0 -21 9 -9 27 6 27 22 0 19 -19 18 -27 -1z"/>
<path d="M11017 3954 c-14 -14 -7 -35 11 -32 9 2 17 10 17 17 0 16 -18 25 -28
15z"/>
<path d="M11657 3942 c-10 -11 -14 -23 -9 -26 12 -7 35 19 30 34 -2 7 -11 3
-21 -8z"/>
<path d="M10966 3941 c-4 -7 -5 -15 -2 -18 9 -9 19 4 14 18 -4 11 -6 11 -12 0z"/>
<path d="M11582 3928 c-15 -15 -15 -28 -1 -28 11 0 39 24 39 34 0 11 -26 6
-38 -6z"/>
<path d="M10906 3921 c-4 -7 -5 -15 -2 -18 9 -9 19 4 14 18 -4 11 -6 11 -12 0z"/>
<path d="M11507 3906 c-3 -8 -3 -17 0 -20 7 -7 33 13 33 25 0 15 -27 10 -33
-5z"/>
<path d="M10855 3900 c-3 -5 -1 -10 4 -10 6 0 11 5 11 10 0 6 -2 10 -4 10 -3
0 -8 -4 -11 -10z"/>
<path d="M11370 3894 c0 -8 5 -12 10 -9 6 4 8 11 5 16 -9 14 -15 11 -15 -7z"/>
<path d="M10813 3893 c-7 -3 -13 -12 -13 -21 0 -15 2 -15 17 1 18 18 16 27 -4
20z"/>
<path d="M11004 3886 c-14 -11 -16 -17 -7 -26 8 -9 14 -7 23 10 15 28 9 34
-16 16z"/>
<path d="M11703 3885 c-3 -9 -3 -19 1 -22 7 -7 36 16 36 28 0 15 -30 10 -37
-6z"/>
<path d="M11640 3880 c0 -5 7 -10 15 -10 8 0 15 5 15 10 0 6 -7 10 -15 10 -8
0 -15 -4 -15 -10z"/>
<path d="M10940 3865 c0 -9 6 -12 15 -9 8 4 15 10 15 15 0 5 -7 9 -15 9 -8 0
-15 -7 -15 -15z"/>
<path d="M10890 3855 c-10 -12 -10 -15 4 -15 9 0 16 7 16 15 0 8 -2 15 -4 15
-2 0 -9 -7 -16 -15z"/>
<path d="M10836 3835 c-3 -8 -1 -15 4 -15 13 0 22 18 11 24 -5 3 -11 -1 -15
-9z"/>
<path d="M10987 3823 c-4 -3 -7 -15 -7 -26 0 -16 3 -17 15 -7 8 7 15 19 15 26
0 15 -12 19 -23 7z"/>
<path d="M10791 3804 c0 -11 3 -14 6 -6 3 7 2 16 -1 19 -3 4 -6 -2 -5 -13z"/>
<path d="M10931 3806 c-8 -9 -11 -19 -7 -23 9 -9 29 13 24 27 -2 8 -8 7 -17
-4z"/>
<path d="M10450 3800 c0 -5 5 -10 10 -10 6 0 10 5 10 10 0 6 -4 10 -10 10 -5
0 -10 -4 -10 -10z"/>
<path d="M10741 3796 c-8 -9 -11 -19 -7 -23 9 -9 29 13 24 27 -2 8 -8 7 -17
-4z"/>
<path d="M10870 3785 c0 -8 4 -15 9 -15 5 0 11 7 15 15 3 9 0 15 -9 15 -8 0
-15 -7 -15 -15z"/>
<path d="M10820 3771 c-7 -15 -7 -21 0 -21 12 0 25 28 17 36 -3 3 -10 -4 -17
-15z"/>
<path d="M10910 3729 c0 -24 23 -21 28 4 2 10 -3 17 -12 17 -10 0 -16 -9 -16
-21z"/>
<path d="M10967 3736 c-4 -10 -5 -21 -2 -24 9 -9 17 6 13 25 -3 17 -4 17 -11
-1z"/>
<path d="M10870 3724 c0 -8 5 -12 10 -9 6 3 10 10 10 16 0 5 -4 9 -10 9 -5 0
-10 -7 -10 -16z"/>
<path d="M2723 3605 c0 -38 2 -53 4 -32 2 20 2 52 0 70 -2 17 -4 1 -4 -38z"/>
<path d="M3080 3651 c0 -5 7 -12 16 -15 14 -5 15 -4 4 9 -14 17 -20 19 -20 6z"/>
<path d="M2553 3605 c0 -27 2 -38 4 -22 2 15 2 37 0 50 -2 12 -4 0 -4 -28z"/>
<path d="M2815 3619 c-4 -6 -5 -12 -2 -15 2 -3 7 2 10 11 7 17 1 20 -8 4z"/>
<path d="M2967 3620 c6 -8 13 -31 16 -50 l4 -35 1 36 c1 24 -4 41 -15 50 -16
12 -16 12 -6 -1z"/>
<path d="M3223 3585 c0 -27 2 -38 4 -22 2 15 2 37 0 50 -2 12 -4 0 -4 -28z"/>
<path d="M3316 3611 c-14 -15 -15 -21 -4 -27 7 -4 10 -3 5 1 -4 5 0 17 10 27
9 10 14 18 11 18 -3 0 -13 -9 -22 -19z"/>
<path d="M3375 3620 c-3 -6 1 -7 9 -4 18 7 21 14 7 14 -6 0 -13 -4 -16 -10z"/>
<path d="M4252 3618 c-7 -7 -11 -21 -11 -32 1 -21 1 -21 6 -1 3 11 10 26 15
33 13 15 6 16 -10 0z"/>
<path d="M4310 3616 c5 -7 10 -34 13 -61 3 -49 3 -49 5 11 2 48 -1 61 -13 61
-10 0 -12 -4 -5 -11z"/>
<path d="M4443 3585 c0 -27 2 -38 4 -22 2 15 2 37 0 50 -2 12 -4 0 -4 -28z"/>
<path d="M3134 3587 c16 -20 30 -37 33 -37 7 0 -36 58 -49 66 -7 4 1 -9 16
-29z"/>
<path d="M1921 3584 c0 -11 3 -14 6 -6 3 7 2 16 -1 19 -3 4 -6 -2 -5 -13z"/>
<path d="M2021 3584 c0 -11 3 -14 6 -6 3 7 2 16 -1 19 -3 4 -6 -2 -5 -13z"/>
<path d="M3978 3575 c-3 -14 -1 -28 3 -31 5 -3 9 9 9 25 0 38 -6 40 -12 6z"/>
<path d="M4548 3575 c-3 -14 -1 -28 3 -31 5 -3 9 9 9 25 0 38 -6 40 -12 6z"/>
<path d="M1860 3586 c0 -2 9 -6 20 -9 11 -3 18 -1 14 4 -5 9 -34 13 -34 5z"/>
<path d="M2480 3586 c0 -2 9 -6 20 -9 11 -3 18 -1 14 4 -5 9 -34 13 -34 5z"/>
<path d="M3525 3579 c-4 -6 -5 -12 -2 -15 2 -3 7 2 10 11 7 17 1 20 -8 4z"/>
<path d="M4090 3586 c0 -2 9 -6 20 -9 11 -3 18 -1 14 4 -5 9 -34 13 -34 5z"/>
<path d="M2096 3563 c-6 -14 -5 -15 5 -6 7 7 10 15 7 18 -3 3 -9 -2 -12 -12z"/>
<path d="M3320 3566 c0 -2 8 -10 18 -17 15 -13 16 -12 3 4 -13 16 -21 21 -21
13z"/>
<path d="M3379 3558 c7 -10 23 -17 35 -17 20 1 20 2 1 6 -11 3 -27 10 -35 17
-13 10 -13 9 -1 -6z"/>
<path d="M1870 3550 c-23 -7 -23 -8 -3 -9 12 -1 25 4 28 9 3 6 5 10 3 9 -2 -1
-14 -5 -28 -9z"/>
<path d="M2160 3549 c0 -5 5 -7 10 -4 6 3 10 8 10 11 0 2 -4 4 -10 4 -5 0 -10
-5 -10 -11z"/>
<path d="M2490 3550 c-23 -7 -23 -8 -3 -9 12 -1 25 4 28 9 3 6 5 10 3 9 -2 -1
-14 -5 -28 -9z"/>
<path d="M4100 3550 c-23 -7 -23 -8 -3 -9 12 -1 25 4 28 9 3 6 5 10 3 9 -2 -1
-14 -5 -28 -9z"/>
<path d="M4707 3549 c7 -7 15 -10 18 -7 3 3 -2 9 -12 12 -14 6 -15 5 -6 -5z"/>
<path d="M1668 3543 c12 -2 30 -2 40 0 9 3 -1 5 -23 4 -22 0 -30 -2 -17 -4z"/>
<path d="M1958 3543 c7 -3 16 -2 19 1 4 3 -2 6 -13 5 -11 0 -14 -3 -6 -6z"/>
<path d="M2058 3543 c7 -3 16 -2 19 1 4 3 -2 6 -13 5 -11 0 -14 -3 -6 -6z"/>
<path d="M2268 3543 c7 -3 16 -2 19 1 4 3 -2 6 -13 5 -11 0 -14 -3 -6 -6z"/>
<path d="M2568 3543 c7 -3 16 -2 19 1 4 3 -2 6 -13 5 -11 0 -14 -3 -6 -6z"/>
<path d="M2828 3543 c6 -2 18 -2 25 0 6 3 1 5 -13 5 -14 0 -19 -2 -12 -5z"/>
<path d="M3548 3543 c7 -3 16 -2 19 1 4 3 -2 6 -13 5 -11 0 -14 -3 -6 -6z"/>
<path d="M3938 3543 c7 -3 16 -2 19 1 4 3 -2 6 -13 5 -11 0 -14 -3 -6 -6z"/>
<path d="M4278 3543 c7 -3 16 -2 19 1 4 3 -2 6 -13 5 -11 0 -14 -3 -6 -6z"/>
<path d="M4398 3543 c7 -3 16 -2 19 1 4 3 -2 6 -13 5 -11 0 -14 -3 -6 -6z"/>
<path d="M4508 3543 c7 -3 16 -2 19 1 4 3 -2 6 -13 5 -11 0 -14 -3 -6 -6z"/>
<path d="M10476 3513 c-11 -11 -6 -23 9 -23 8 0 15 4 15 9 0 13 -16 22 -24 14z"/>
<path d="M10797 3503 c-4 -3 -7 -16 -7 -27 1 -21 1 -21 15 -2 8 11 15 23 15
28 0 10 -14 11 -23 1z"/>
<path d="M10445 3459 c-4 -6 -5 -13 -2 -16 7 -7 27 6 27 18 0 12 -17 12 -25
-2z"/>
<path d="M11007 3463 c-10 -9 -8 -43 2 -43 5 0 14 7 21 15 17 21 -4 48 -23 28z"/>
<path d="M2054 3436 c-3 -7 -4 -38 -2 -67 l3 -54 5 68 c5 67 4 79 -6 53z"/>
<path d="M2759 3423 c-2 -68 -1 -94 5 -100 3 -4 6 24 6 60 0 64 -9 96 -11 40z"/>
<path d="M5183 3385 c0 -38 2 -53 4 -32 2 20 2 52 0 70 -2 17 -4 1 -4 -38z"/>
<path d="M5284 3436 c-3 -7 -4 -38 -2 -67 l3 -54 5 68 c5 67 4 79 -6 53z"/>
<path d="M3863 3375 c0 -33 2 -45 4 -27 2 18 2 45 0 60 -2 15 -4 0 -4 -33z"/>
<path d="M4813 3385 c0 -27 2 -38 4 -22 2 15 2 37 0 50 -2 12 -4 0 -4 -28z"/>
<path d="M10657 3423 c-4 -3 -7 -15 -7 -26 0 -16 3 -17 15 -7 8 7 15 19 15 26
0 15 -12 19 -23 7z"/>
<path d="M1918 3403 c6 -3 13 -23 14 -46 1 -41 1 -41 5 -7 3 19 8 39 13 45 5
6 -2 10 -18 11 -15 1 -21 -1 -14 -3z"/>
<path d="M1987 3403 c6 -4 13 -26 16 -48 4 -40 4 -40 3 4 -1 30 -6 46 -16 48
-10 3 -11 2 -3 -4z"/>
<path d="M2112 3398 c-7 -7 -11 -21 -11 -32 1 -21 1 -21 6 -1 3 11 10 26 15
33 13 15 6 16 -10 0z"/>
<path d="M2166 3400 c7 -8 14 -24 17 -35 4 -19 5 -19 6 1 0 12 -7 28 -16 35
-16 12 -17 12 -7 -1z"/>
<path d="M2222 3361 c1 -41 2 -42 5 -11 3 19 9 40 14 46 5 7 3 11 -6 11 -11 0
-15 -12 -13 -46z"/>
<path d="M3533 3365 c0 -27 2 -38 4 -22 2 15 2 37 0 50 -2 12 -4 0 -4 -28z"/>
<path d="M3582 3398 c-7 -7 -11 -21 -11 -32 1 -21 1 -21 6 -1 3 11 10 26 15
33 13 15 6 16 -10 0z"/>
<path d="M3636 3400 c7 -8 14 -24 17 -35 4 -19 5 -19 6 1 0 12 -7 28 -16 35
-16 12 -17 12 -7 -1z"/>
<path d="M3692 3361 c1 -41 2 -42 5 -11 3 19 9 40 14 46 5 7 3 11 -6 11 -11 0
-15 -12 -13 -46z"/>
<path d="M3922 3398 c-7 -7 -11 -21 -11 -32 1 -21 1 -21 6 -1 3 11 10 26 15
33 13 15 6 16 -10 0z"/>
<path d="M3976 3400 c7 -8 14 -24 17 -35 4 -19 5 -19 6 1 0 12 -7 28 -16 35
-16 12 -17 12 -7 -1z"/>
<path d="M4433 3365 c0 -27 2 -38 4 -22 2 15 2 37 0 50 -2 12 -4 0 -4 -28z"/>
<path d="M4482 3361 c1 -41 2 -42 5 -11 3 19 9 40 14 46 5 7 3 11 -6 11 -11 0
-15 -12 -13 -46z"/>
<path d="M4883 3365 c0 -27 2 -38 4 -22 2 15 2 37 0 50 -2 12 -4 0 -4 -28z"/>
<path d="M5025 3400 c-3 -6 1 -7 9 -4 18 7 21 14 7 14 -6 0 -13 -4 -16 -10z"/>
<path d="M10425 3400 c-3 -5 -1 -10 4 -10 6 0 11 5 11 10 0 6 -2 10 -4 10 -3
0 -8 -4 -11 -10z"/>
<path d="M10470 3400 c0 -5 5 -10 10 -10 6 0 10 5 10 10 0 6 -4 10 -10 10 -5
0 -10 -4 -10 -10z"/>
<path d="M1861 3384 c0 -11 3 -14 6 -6 3 7 2 16 -1 19 -3 4 -6 -2 -5 -13z"/>
<path d="M10370 3385 c0 -8 2 -15 4 -15 2 0 6 7 10 15 3 8 1 15 -4 15 -6 0
-10 -7 -10 -15z"/>
<path d="M10860 3375 c-17 -20 -3 -39 16 -21 16 16 19 36 5 36 -5 0 -14 -7
-21 -15z"/>
<path d="M3408 3355 c-3 -14 -1 -28 3 -31 5 -3 9 9 9 25 0 38 -6 40 -12 6z"/>
<path d="M4595 3359 c-4 -6 -5 -12 -2 -15 2 -3 7 2 10 11 7 17 1 20 -8 4z"/>
<path d="M2689 3338 c7 -10 23 -17 35 -17 20 1 20 2 1 6 -11 3 -27 10 -35 17
-13 10 -13 9 -1 -6z"/>
<path d="M5029 3338 c7 -10 23 -17 35 -17 20 1 20 2 1 6 -11 3 -27 10 -35 17
-13 10 -13 9 -1 -6z"/>
<path d="M10400 3340 c0 -5 5 -10 10 -10 6 0 10 5 10 10 0 6 -4 10 -10 10 -5
0 -10 -4 -10 -10z"/>
<path d="M11095 3338 c-8 -25 -11 -88 -4 -88 12 0 41 71 35 86 -7 17 -25 18
-31 2z"/>
<path d="M2308 3328 c5 -5 16 -8 23 -6 8 3 3 7 -10 11 -17 4 -21 3 -13 -5z"/>
<path d="M2458 3328 c6 -6 18 -8 28 -6 14 3 12 5 -9 10 -19 3 -25 2 -19 -4z"/>
<path d="M3468 3328 c5 -5 16 -8 23 -6 8 3 3 7 -10 11 -17 4 -21 3 -13 -5z"/>
<path d="M4950 3329 c0 -5 5 -7 10 -4 6 3 10 8 10 11 0 2 -4 4 -10 4 -5 0 -10
-5 -10 -11z"/>
<path d="M10345 3330 c-3 -5 -1 -10 4 -10 6 0 11 5 11 10 0 6 -2 10 -4 10 -3
0 -8 -4 -11 -10z"/>
<path d="M1678 3323 c7 -3 16 -2 19 1 4 3 -2 6 -13 5 -11 0 -14 -3 -6 -6z"/>
<path d="M1778 3323 c7 -3 16 -2 19 1 4 3 -2 6 -13 5 -11 0 -14 -3 -6 -6z"/>
<path d="M2138 3323 c7 -3 16 -2 19 1 4 3 -2 6 -13 5 -11 0 -14 -3 -6 -6z"/>
<path d="M3178 3323 c7 -3 16 -2 19 1 4 3 -2 6 -13 5 -11 0 -14 -3 -6 -6z"/>
<path d="M3368 3323 c7 -3 16 -2 19 1 4 3 -2 6 -13 5 -11 0 -14 -3 -6 -6z"/>
<path d="M3608 3323 c7 -3 16 -2 19 1 4 3 -2 6 -13 5 -11 0 -14 -3 -6 -6z"/>
<path d="M3948 3323 c7 -3 16 -2 19 1 4 3 -2 6 -13 5 -11 0 -14 -3 -6 -6z"/>
<path d="M4278 3323 c7 -3 16 -2 19 1 4 3 -2 6 -13 5 -11 0 -14 -3 -6 -6z"/>
<path d="M4388 3323 c7 -3 16 -2 19 1 4 3 -2 6 -13 5 -11 0 -14 -3 -6 -6z"/>
<path d="M4618 3323 c7 -3 16 -2 19 1 4 3 -2 6 -13 5 -11 0 -14 -3 -6 -6z"/>
<path d="M4738 3323 c7 -3 16 -2 19 1 4 3 -2 6 -13 5 -11 0 -14 -3 -6 -6z"/>
<path d="M4828 3323 c7 -3 16 -2 19 1 4 3 -2 6 -13 5 -11 0 -14 -3 -6 -6z"/>
<path d="M5368 3323 c7 -3 16 -2 19 1 4 3 -2 6 -13 5 -11 0 -14 -3 -6 -6z"/>
<path d="M10297 3323 c-4 -3 -7 -11 -7 -17 0 -6 5 -5 12 2 6 6 9 14 7 17 -3 3
-9 2 -12 -2z"/>
<path d="M10721 3306 c-20 -24 -9 -39 14 -22 15 11 17 18 9 26 -8 8 -14 7 -23
-4z"/>
<path d="M10240 3300 c0 -5 5 -10 10 -10 6 0 10 5 10 10 0 6 -4 10 -10 10 -5
0 -10 -4 -10 -10z"/>
<path d="M10370 3274 c0 -14 3 -14 15 -4 8 7 15 14 15 16 0 2 -7 4 -15 4 -8 0
-15 -7 -15 -16z"/>
<path d="M10315 3269 c-4 -6 -5 -13 -2 -16 7 -7 27 6 27 18 0 12 -17 12 -25
-2z"/>
<path d="M10935 3249 c-4 -11 -4 -23 -1 -27 10 -9 39 25 32 37 -11 17 -24 13
-31 -10z"/>
<path d="M10260 3249 c0 -5 5 -7 10 -4 6 3 10 8 10 11 0 2 -4 4 -10 4 -5 0
-10 -5 -10 -11z"/>
<path d="M10215 3240 c-3 -5 -1 -10 4 -10 6 0 11 5 11 10 0 6 -2 10 -4 10 -3
0 -8 -4 -11 -10z"/>
<path d="M10570 3225 c-10 -12 -10 -15 3 -15 19 0 31 16 18 24 -5 3 -14 -1
-21 -9z"/>
<path d="M10160 3219 c0 -5 5 -7 10 -4 6 3 10 8 10 11 0 2 -4 4 -10 4 -5 0
-10 -5 -10 -11z"/>
<path d="M10240 3195 c-10 -12 -10 -15 4 -15 9 0 16 7 16 15 0 8 -2 15 -4 15
-2 0 -9 -7 -16 -15z"/>
<path d="M10290 3199 c0 -5 5 -7 10 -4 6 3 10 8 10 11 0 2 -4 4 -10 4 -5 0
-10 -5 -10 -11z"/>
<path d="M11180 3195 c-10 -12 -10 -15 0 -15 8 0 10 -12 5 -40 -5 -31 -4 -40
7 -40 12 0 38 69 38 100 0 15 -36 12 -50 -5z"/>
<path d="M10186 3173 c-6 -14 -5 -15 5 -6 7 7 10 15 7 18 -3 3 -9 -2 -12 -12z"/>
<path d="M10785 3179 c-10 -15 1 -23 20 -15 9 3 13 10 10 16 -8 13 -22 13 -30
-1z"/>
<path d="M10415 3150 c-3 -5 1 -10 9 -10 9 0 16 5 16 10 0 6 -4 10 -9 10 -6 0
-13 -4 -16 -10z"/>
<path d="M11029 3138 c0 -2 -2 -27 -3 -55 -2 -39 1 -53 11 -53 7 0 13 10 13
23 0 12 7 33 16 45 18 25 11 42 -17 42 -10 0 -19 -1 -20 -2z"/>
<path d="M10635 3109 c-4 -6 -5 -13 -2 -16 7 -7 27 6 27 18 0 12 -17 12 -25
-2z"/>
<path d="M10110 3100 c0 -5 5 -10 10 -10 6 0 10 5 10 10 0 6 -4 10 -10 10 -5
0 -10 -4 -10 -10z"/>
<path d="M10050 3090 c0 -5 5 -10 10 -10 6 0 10 5 10 10 0 6 -4 10 -10 10 -5
0 -10 -4 -10 -10z"/>
<path d="M9955 3070 c-3 -5 -1 -10 4 -10 6 0 11 5 11 10 0 6 -2 10 -4 10 -3 0
-8 -4 -11 -10z"/>
<path d="M10874 3058 c-13 -21 -13 -99 0 -95 6 2 13 14 14 28 2 13 8 30 14 36
11 14 4 43 -11 43 -5 0 -13 -5 -17 -12z"/>
<path d="M10481 3029 c-11 -31 -6 -36 15 -15 12 13 14 20 6 28 -8 8 -14 5 -21
-13z"/>
<path d="M10704 2976 c-8 -22 0 -91 11 -91 6 0 12 11 13 25 2 14 8 29 13 35 5
5 9 17 9 27 0 22 -38 25 -46 4z"/>
<path d="M10330 2951 c-15 -28 -12 -33 10 -19 21 13 27 38 10 38 -5 0 -14 -9
-20 -19z"/>
<path d="M10554 2895 c-4 -14 -3 -29 1 -33 9 -9 47 37 39 49 -11 18 -34 8 -40
-16z"/>
<path d="M10413 2838 c-17 -20 -20 -90 -5 -95 7 -3 12 5 12 21 0 15 6 35 12
46 15 24 -2 49 -19 28z"/>
<path d="M10550 2830 c0 -19 11 -26 23 -14 8 8 -3 34 -14 34 -5 0 -9 -9 -9
-20z"/>
<path d="M10260 2744 c-13 -33 -13 -71 0 -79 6 -4 10 6 10 24 0 16 5 33 10 36
13 8 13 45 0 45 -6 0 -15 -12 -20 -26z"/>
<path d="M1883 1213 c-10 -3 -13 -47 -13 -169 l0 -164 30 0 c28 0 30 2 30 39
0 21 6 44 14 50 11 9 20 2 45 -39 26 -42 36 -50 61 -50 16 0 30 3 30 6 0 4
-18 35 -39 69 l-39 62 30 30 c26 27 28 33 17 51 -12 20 -14 19 -63 -24 l-51
-44 -3 95 c-3 99 -7 106 -49 88z"/>
<path d="M5573 1213 c-10 -3 -13 -47 -13 -169 l0 -164 30 0 c28 0 30 2 30 39
0 21 6 44 14 50 12 10 19 3 42 -39 24 -45 31 -50 62 -50 l34 0 -28 48 c-15 26
-33 56 -40 67 -12 17 -10 23 18 52 26 27 29 35 18 48 -18 22 -26 19 -75 -26
l-45 -42 0 97 c0 100 -4 107 -47 89z"/>
<path d="M4772 1145 c-29 -13 -32 -17 -22 -36 8 -14 17 -18 28 -13 9 4 31 9
49 12 24 3 34 -1 42 -17 16 -29 4 -49 -69 -112 -42 -36 -60 -59 -60 -75 0 -24
2 -24 100 -24 l100 0 0 25 c0 24 -3 25 -61 25 l-61 0 50 45 c56 50 71 89 52
134 -20 49 -83 64 -148 36z"/>
<path d="M1692 1130 c-28 -17 -31 -23 -22 -40 6 -11 16 -17 25 -14 12 5 15 -7
15 -70 0 -74 -1 -76 -25 -76 -20 0 -25 -5 -25 -25 0 -24 2 -25 75 -25 73 0 75
1 75 25 0 18 -5 25 -20 25 -19 0 -20 7 -20 110 0 107 -1 110 -22 110 -13 0
-38 -9 -56 -20z"/>
<path d="M3026 1119 c-3 -17 -6 -56 -6 -85 0 -53 1 -54 29 -54 17 0 33 5 36
10 9 14 48 13 63 -2 17 -17 15 -64 -4 -82 -18 -18 -66 -21 -95 -5 -17 8 -23 7
-35 -8 -20 -26 -18 -29 25 -41 80 -25 143 -5 167 53 29 71 -11 133 -91 143
-35 3 -45 8 -41 19 4 8 6 19 6 24 0 5 24 9 54 9 52 0 66 9 66 41 0 5 -38 9
-84 9 l-83 0 -7 -31z"/>
<path d="M3333 1136 c-41 -19 -63 -62 -63 -126 0 -65 22 -108 65 -126 47 -19
74 -18 113 6 69 43 83 164 25 222 -36 35 -93 45 -140 24z m94 -51 c28 -20 39
-76 23 -116 -34 -82 -130 -52 -130 41 0 71 56 110 107 75z"/>
<path d="M3633 1136 c-41 -19 -63 -62 -63 -126 0 -65 22 -108 65 -126 47 -19
74 -18 113 6 69 43 83 164 25 222 -36 35 -93 45 -140 24z m94 -51 c28 -20 39
-76 23 -116 -34 -82 -130 -52 -130 41 0 71 56 110 107 75z"/>
<path d="M5010 1064 l0 -86 28 5 c15 3 40 9 56 13 22 5 32 3 43 -11 44 -61
-21 -116 -101 -85 -21 8 -27 6 -36 -10 -14 -27 -15 -26 35 -40 94 -26 165 14
165 94 0 66 -32 100 -94 101 -43 0 -46 2 -46 28 0 26 1 27 60 27 33 0 60 4 60
9 0 5 3 16 6 25 5 14 -6 16 -85 16 l-91 0 0 -86z"/>
<path d="M5312 1130 c-43 -26 -66 -81 -58 -138 8 -56 21 -79 59 -102 66 -40
137 -16 169 57 32 73 14 147 -45 183 -41 25 -83 25 -125 0z m108 -50 c28 -28
28 -108 0 -138 -26 -27 -64 -28 -90 -2 -15 15 -20 33 -20 70 0 57 24 90 65 90
14 0 34 -9 45 -20z"/>
<path d="M2190 1080 l0 -50 -46 0 c-38 0 -45 -3 -40 -16 3 -9 6 -20 6 -25 0
-5 18 -9 40 -9 l40 0 0 -50 c0 -49 1 -50 30 -50 29 0 30 1 30 50 l0 50 40 0
c36 0 40 3 40 25 0 23 -4 25 -40 25 l-40 0 0 50 c0 49 -1 50 -30 50 -29 0 -30
-1 -30 -50z"/>
<path d="M3930 1080 l0 -50 -40 0 c-36 0 -40 -2 -40 -25 0 -22 4 -25 40 -25
l40 0 0 -50 c0 -49 1 -50 30 -50 29 0 30 1 30 50 l0 50 40 0 c36 0 40 3 40 25
0 23 -4 25 -40 25 l-40 0 0 50 c0 49 -1 50 -30 50 -29 0 -30 -1 -30 -50z"/>
<path d="M5880 1080 l0 -50 -45 0 c-41 0 -45 -2 -45 -25 0 -23 4 -25 45 -25
l45 0 0 -50 c0 -47 2 -50 25 -50 23 0 25 3 25 50 l0 50 40 0 c36 0 40 3 40 25
0 23 -4 25 -40 25 l-40 0 0 50 c0 47 -2 50 -25 50 -23 0 -25 -3 -25 -50z"/>
<path d="M1663 693 c9 -2 25 -2 35 0 9 3 1 5 -18 5 -19 0 -27 -2 -17 -5z"/>
<path d="M2996 692 c-3 -5 8 -6 25 -4 16 2 29 6 29 8 0 8 -49 4 -54 -4z"/>
<path d="M3093 645 c0 -33 2 -45 4 -27 2 18 2 45 0 60 -2 15 -4 0 -4 -33z"/>
<path d="M4749 683 c-12 -16 -12 -17 1 -6 8 6 26 13 40 16 l25 4 -26 2 c-15 0
-33 -7 -40 -16z"/>
<path d="M1717 671 c-3 -13 -15 -21 -38 -23 l-34 -3 40 -5 c38 -5 40 -4 42 22
3 32 -2 37 -10 9z"/>
<path d="M1763 630 c0 -25 2 -35 4 -22 2 12 2 32 0 45 -2 12 -4 2 -4 -23z"/>
<path d="M1980 627 c4 -41 5 -41 8 -8 2 18 0 37 -5 42 -5 5 -6 -11 -3 -34z"/>
<path d="M3303 615 c0 -33 2 -45 4 -27 2 18 2 45 0 60 -2 15 -4 0 -4 -33z"/>
<path d="M4852 640 c0 -19 2 -27 5 -17 2 9 2 25 0 35 -3 9 -5 1 -5 -18z"/>
<path d="M5260 627 c4 -41 5 -41 8 -8 2 18 0 37 -5 42 -5 5 -6 -11 -3 -34z"/>
<path d="M5463 630 c0 -25 2 -35 4 -22 2 12 2 32 0 45 -2 12 -4 2 -4 -23z"/>
<path d="M4731 644 c0 -11 3 -14 6 -6 3 7 2 16 -1 19 -3 4 -6 -2 -5 -13z"/>
<path d="M5360 635 c0 -6 16 -9 40 -7 22 2 40 5 40 7 0 2 -18 5 -40 7 -24 2
-40 -1 -40 -7z"/>
<path d="M1848 633 c6 -2 18 -2 25 0 6 3 1 5 -13 5 -14 0 -19 -2 -12 -5z"/>
<path d="M5140 604 c-17 -9 -20 -14 -9 -14 9 0 22 7 29 15 15 18 13 18 -20 -1z"/>
<path d="M4980 600 c-23 -7 -23 -8 -3 -9 12 -1 25 4 28 9 3 6 5 10 3 9 -2 -1
-14 -5 -28 -9z"/>
<path d="M5047 599 c7 -7 15 -10 18 -7 3 3 -2 9 -12 12 -14 6 -15 5 -6 -5z"/>
<path d="M5550 600 c-23 -7 -23 -8 -3 -9 12 -1 25 4 28 9 3 6 5 10 3 9 -2 -1
-14 -5 -28 -9z"/>
<path d="M1663 593 c9 -2 25 -2 35 0 9 3 1 5 -18 5 -19 0 -27 -2 -17 -5z"/>
<path d="M1838 593 c7 -3 16 -2 19 1 4 3 -2 6 -13 5 -11 0 -14 -3 -6 -6z"/>
<path d="M2048 593 c7 -3 16 -2 19 1 4 3 -2 6 -13 5 -11 0 -14 -3 -6 -6z"/>
<path d="M2138 593 c6 -2 18 -2 25 0 6 3 1 5 -13 5 -14 0 -19 -2 -12 -5z"/>
<path d="M3008 593 c6 -2 18 -2 25 0 6 3 1 5 -13 5 -14 0 -19 -2 -12 -5z"/>
<path d="M3228 593 c7 -3 16 -2 19 1 4 3 -2 6 -13 5 -11 0 -14 -3 -6 -6z"/>
<path d="M3338 593 c7 -3 16 -2 19 1 4 3 -2 6 -13 5 -11 0 -14 -3 -6 -6z"/>
<path d="M3418 593 c6 -2 18 -2 25 0 6 3 1 5 -13 5 -14 0 -19 -2 -12 -5z"/>
<path d="M4778 593 c6 -2 18 -2 25 0 6 3 1 5 -13 5 -14 0 -19 -2 -12 -5z"/>
<path d="M4878 593 c7 -3 16 -2 19 1 4 3 -2 6 -13 5 -11 0 -14 -3 -6 -6z"/>
<path d="M5398 593 c7 -3 16 -2 19 1 4 3 -2 6 -13 5 -11 0 -14 -3 -6 -6z"/>
<path d="M11669 539 c-17 -17 -19 -28 -14 -60 6 -36 5 -39 -17 -39 -15 -1 -32
-13 -49 -38 -14 -20 -45 -50 -69 -67 -40 -28 -50 -30 -128 -30 l-84 0 37 -32
37 -32 -32 12 c-35 13 -74 45 -82 67 -7 21 -43 3 -73 -36 -30 -39 -37 -96 -16
-117 11 -10 12 -8 7 10 -4 13 -1 34 8 50 18 34 76 91 76 74 0 -6 12 -23 26
-36 l27 -25 -49 -45 c-38 -35 -46 -47 -35 -54 24 -15 3 -31 -26 -20 -29 11
-42 4 -25 -13 15 -15 16 -38 2 -38 -6 0 -17 18 -26 39 -8 22 -23 42 -31 45
-23 9 -29 -2 -10 -17 16 -11 28 -47 31 -92 1 -15 -5 -19 -21 -18 -15 2 -23 -3
-23 -12 0 -13 39 -15 284 -15 l284 0 51 40 c76 60 84 78 76 152 -4 35 -16 86
-26 113 -24 63 -24 77 1 117 28 46 26 82 -7 113 -34 31 -76 32 -104 4z m81
-31 c0 -12 -7 -42 -16 -65 -16 -41 -16 -46 5 -99 12 -32 20 -58 19 -59 -7 -5
-47 -25 -51 -25 -3 0 -7 42 -10 93 -3 50 -8 102 -12 114 -5 15 -1 27 14 42 28
28 51 27 51 -1z m-365 -318 c8 -13 -5 -13 -25 0 -13 8 -13 10 2 10 9 0 20 -4
23 -10z"/>
<path d="M9625 488 c-4 -9 0 -35 8 -59 14 -40 15 -41 27 -22 9 14 20 18 37 15
l24 -5 -24 27 c-13 14 -28 26 -32 26 -4 0 -14 8 -21 18 -12 16 -13 16 -19 0z"/>
<path d="M9753 465 c-10 -15 -38 -54 -63 -88 -25 -34 -51 -73 -58 -87 -6 -14
-21 -41 -32 -60 -11 -19 -20 -42 -20 -51 0 -15 -14 -17 -115 -18 -80 -1 -115
2 -115 10 0 8 -4 8 -15 -1 -8 -6 -20 -8 -26 -4 -7 4 -9 3 -6 -3 4 -6 -3 -19
-15 -29 -11 -11 -29 -38 -38 -60 -10 -23 -23 -45 -29 -48 -6 -4 -11 -12 -11
-17 0 -20 21 4 45 52 14 27 30 49 35 49 6 0 18 8 29 19 12 12 23 16 32 10 12
-7 11 -9 -1 -10 -8 -1 10 -5 40 -8 52 -6 56 -8 66 -41 10 -28 9 -38 -2 -51
-22 -25 -17 -29 35 -29 42 0 54 5 83 33 44 41 146 121 176 136 13 7 51 36 85
65 34 29 70 55 80 59 24 9 22 24 -10 70 -27 39 -56 61 -83 62 -8 0 -16 10 -18
22 -2 12 -9 27 -17 33 -10 9 -17 5 -32 -15z m66 -63 c47 -44 51 -69 16 -95
-30 -22 -32 -14 -5 20 11 15 18 28 15 31 -3 3 -13 -4 -21 -17 -13 -18 -22 -21
-43 -16 -42 10 -49 24 -22 46 28 23 15 26 -17 3 -21 -15 -22 -15 -11 13 12 31
28 53 39 53 5 0 27 -17 49 -38z m66 -103 c0 -8 -10 -15 -22 -17 -25 -4 -30 7
-11 26 15 15 33 10 33 -9z m-378 -201 c-3 -8 -6 -5 -6 6 -1 11 2 17 5 13 3 -3
4 -12 1 -19z m-24 -18 c-3 -11 -7 -20 -9 -20 -2 0 -4 9 -4 20 0 11 4 20 9 20
5 0 7 -9 4 -20z"/>
<path d="M9798 373 c7 -3 16 -2 19 1 4 3 -2 6 -13 5 -11 0 -14 -3 -6 -6z"/>
<path d="M13490 430 c-21 -5 -26 -14 -32 -54 -9 -62 -31 -96 -66 -98 -73 -4
-109 4 -147 30 -39 27 -88 52 -104 52 -11 0 -69 -113 -64 -127 2 -6 -2 -24
-10 -40 -8 -15 -17 -45 -21 -65 -4 -21 -11 -38 -16 -38 -6 0 -10 -10 -10 -23
0 -12 -7 -33 -16 -45 l-15 -22 191 0 c107 0 199 4 210 10 10 5 51 14 91 20 77
11 102 25 172 95 43 43 44 55 17 127 -11 29 -20 60 -20 68 -1 25 -74 100 -105
108 -17 5 -41 6 -55 2z"/>
<path d="M9350 305 c-18 -19 -20 -25 -8 -25 9 0 19 8 23 18 6 16 7 16 16 0 14
-25 31 -22 27 4 -4 32 -30 33 -58 3z"/>
<path d="M10020 222 c0 -22 -79 -99 -158 -153 -101 -68 -101 -69 -65 -69 56 0
226 133 240 188 3 13 0 29 -6 35 -8 8 -11 8 -11 -1z"/>
<path d="M9438 193 c6 -2 18 -2 25 0 6 3 1 5 -13 5 -14 0 -19 -2 -12 -5z"/>
<path d="M11076 94 c-4 -12 -1 -14 14 -9 14 5 20 2 20 -9 0 -19 16 -21 26 -4
7 12 -21 38 -42 38 -6 0 -15 -7 -18 -16z"/>
<path d="M9381 45 c-33 -38 -36 -45 -21 -45 6 0 10 7 10 16 0 14 2 15 17 3 15
-12 16 -12 10 3 -7 20 9 35 16 16 3 -7 6 -1 6 15 1 15 -1 27 -3 27 -2 0 -18
-16 -35 -35z"/>
<path d="M13702 45 c-18 -19 -32 -37 -32 -40 0 -10 56 -5 68 7 14 14 16 68 4
68 -5 0 -23 -16 -40 -35z"/>
<path d="M11041 51 c-9 -16 -9 -20 2 -15 9 3 17 -4 22 -18 l8 -23 4 24 c3 13
-2 30 -10 38 -13 14 -16 13 -26 -6z"/>
</g>
</svg>
